<svg preserveAspectRatio="none" width="100%" height="100%" overflow="visible" style="display: block;" viewBox="0 0 75.302 75.302" fill="none" xmlns="http://www.w3.org/2000/svg">
<g id="circle" filter="url(#filter0_d_0_29)">
<path id="Ellipse 1" d="M74.651 37.651C74.651 58.0856 58.0856 74.651 37.651 74.651C17.2165 74.651 0.651019 58.0856 0.651019 37.651C0.651019 17.2165 17.2165 0.651019 37.651 0.651019C58.0856 0.651019 74.651 17.2165 74.651 37.651ZM11.233 37.651C11.233 52.2413 23.0608 64.069 37.651 64.069C52.2413 64.069 64.069 52.2413 64.069 37.651C64.069 23.0608 52.2413 11.233 37.651 11.233C23.0608 11.233 11.233 23.0608 11.233 37.651Z" fill="var(--fill-0, #DCDCDC)"/>
<path id="Ellipse 2" d="M37.651 5.94202C37.651 3.01988 40.0318 0.612222 42.9241 1.02868C47.7697 1.72639 52.4467 3.38153 56.6756 5.91671C62.4232 9.36239 67.1272 14.3044 70.2851 20.215C73.4431 26.1256 74.9365 32.7829 74.606 39.4761C74.2754 46.1693 72.1333 52.6471 68.4083 58.2178C64.6833 63.7885 59.5153 68.2429 53.4561 71.1055C47.3969 73.968 40.674 75.1313 34.0052 74.471C27.3365 73.8106 20.9723 71.3516 15.5921 67.3563C11.6336 64.4168 8.31723 60.7269 5.82123 56.5154C4.33137 54.0016 5.64684 50.8816 8.34732 49.7652V49.7652C11.0478 48.6488 14.1016 49.9748 15.7329 52.3992C17.4002 54.877 19.4828 57.0649 21.901 58.8606C25.7424 61.7132 30.2864 63.469 35.0479 63.9405C39.8094 64.4119 44.6096 63.5814 48.9358 61.5375C53.2621 59.4936 56.952 56.3132 59.6117 52.3357C62.2713 48.3582 63.8008 43.7331 64.0369 38.9541C64.2729 34.1752 63.2066 29.4219 60.9518 25.2017C58.697 20.9815 55.3384 17.4529 51.2345 14.9927C48.6512 13.444 45.8336 12.3553 42.9068 11.7611C40.0431 11.1797 37.651 8.86416 37.651 5.94202V5.94202Z" fill="var(--fill-0, #168AAD)"/>
</g>
<defs>
<filter id="filter0_d_0_29" x="0" y="0" width="75.302" height="75.3021" filterUnits="userSpaceOnUse" color-interpolation-filters="sRGB">
<feFlood flood-opacity="0" result="BackgroundImageFix"/>
<feColorMatrix in="SourceAlpha" type="matrix" values="0 0 0 0 0 0 0 0 0 0 0 0 0 0 0 0 0 0 127 0" result="hardAlpha"/>
<feOffset/>
<feGaussianBlur stdDeviation="0.32551"/>
<feComposite in2="hardAlpha" operator="out"/>
<feColorMatrix type="matrix" values="0 0 0 0 0 0 0 0 0 0 0 0 0 0 0 0 0 0 0.18 0"/>
<feBlend mode="normal" in2="BackgroundImageFix" result="effect1_dropShadow_0_29"/>
<feBlend mode="normal" in="SourceGraphic" in2="effect1_dropShadow_0_29" result="shape"/>
</filter>
</defs>
</svg>
