<svg preserveAspectRatio="none" width="100%" height="100%" overflow="visible" style="display: block;" viewBox="0 0 22 22" fill="none" xmlns="http://www.w3.org/2000/svg">
<g id="Frame">
<g id="Vector">
<path d="M20.1667 7.48183V7.54875C20.1667 8.33708 20.1667 8.73217 19.9769 9.05483C19.7872 9.3775 19.4416 9.56908 18.7522 9.95317L18.0253 10.3565C18.5258 8.6625 18.6936 6.842 18.755 5.2855L18.7642 5.08292L18.766 5.03525C19.3627 5.24242 19.6982 5.39733 19.9072 5.687C20.1667 6.04725 20.1667 6.52575 20.1667 7.48183ZM1.83333 7.48183V7.54875C1.83333 8.33708 1.83333 8.73217 2.02308 9.05483C2.21283 9.3775 2.55842 9.56908 3.24775 9.95317L3.97558 10.3565C3.47417 8.6625 3.30642 6.842 3.245 5.2855L3.23583 5.08292L3.23492 5.03525C2.63725 5.24242 2.30175 5.39733 2.09275 5.687C1.83333 6.04725 1.83333 6.52667 1.83333 7.48183Z" fill="var(--fill-0, black)"/>
<path d="M20.1667 7.48183V7.54875C20.1667 8.33708 20.1667 8.73217 19.9769 9.05483C19.7872 9.3775 19.4416 9.56908 18.7522 9.95317L18.0253 10.3565C18.5258 8.6625 18.6936 6.842 18.755 5.2855L18.7642 5.08292L18.766 5.03525C19.3627 5.24242 19.6982 5.39733 19.9072 5.687C20.1667 6.04725 20.1667 6.52575 20.1667 7.48183ZM1.83333 7.48183V7.54875C1.83333 8.33708 1.83333 8.73217 2.02308 9.05483C2.21283 9.3775 2.55842 9.56908 3.24775 9.95317L3.97558 10.3565C3.47417 8.6625 3.30642 6.842 3.245 5.2855L3.23583 5.08292L3.23492 5.03525C2.63725 5.24242 2.30175 5.39733 2.09275 5.687C1.83333 6.04725 1.83333 6.52667 1.83333 7.48183Z" fill="url(#paint0_linear_0_6)"/>
</g>
<g id="Vector_2">
<path fill-rule="evenodd" clip-rule="evenodd" d="M15.0123 2.15142C13.686 1.93416 12.3439 1.82777 11 1.83333C9.36558 1.83333 8.01808 1.97725 6.98775 2.15142C5.94367 2.32742 5.42208 2.41542 4.98575 2.95258C4.55033 3.48975 4.57325 4.07 4.61908 5.2305C4.77767 9.21617 5.6375 14.1955 10.3125 14.6355V17.875H9.00167C8.78983 17.8751 8.58458 17.9486 8.42081 18.083C8.25704 18.2173 8.14485 18.4043 8.10333 18.612L7.92917 19.4792H5.5C5.31766 19.4792 5.1428 19.5516 5.01386 19.6805C4.88493 19.8095 4.8125 19.9843 4.8125 20.1667C4.8125 20.349 4.88493 20.5239 5.01386 20.6528C5.1428 20.7817 5.31766 20.8542 5.5 20.8542H16.5C16.6823 20.8542 16.8572 20.7817 16.9861 20.6528C17.1151 20.5239 17.1875 20.349 17.1875 20.1667C17.1875 19.9843 17.1151 19.8095 16.9861 19.6805C16.8572 19.5516 16.6823 19.4792 16.5 19.4792H14.0708L13.8967 18.612C13.8551 18.4043 13.743 18.2173 13.5792 18.083C13.4154 17.9486 13.2102 17.8751 12.9983 17.875H11.6875V14.6355C16.3625 14.1955 17.2233 9.21708 17.3809 5.2305C17.4268 4.07 17.4506 3.48883 17.0143 2.95258C16.5779 2.41542 16.0563 2.32742 15.0123 2.15142Z" fill="var(--fill-0, black)"/>
<path fill-rule="evenodd" clip-rule="evenodd" d="M15.0123 2.15142C13.686 1.93416 12.3439 1.82777 11 1.83333C9.36558 1.83333 8.01808 1.97725 6.98775 2.15142C5.94367 2.32742 5.42208 2.41542 4.98575 2.95258C4.55033 3.48975 4.57325 4.07 4.61908 5.2305C4.77767 9.21617 5.6375 14.1955 10.3125 14.6355V17.875H9.00167C8.78983 17.8751 8.58458 17.9486 8.42081 18.083C8.25704 18.2173 8.14485 18.4043 8.10333 18.612L7.92917 19.4792H5.5C5.31766 19.4792 5.1428 19.5516 5.01386 19.6805C4.88493 19.8095 4.8125 19.9843 4.8125 20.1667C4.8125 20.349 4.88493 20.5239 5.01386 20.6528C5.1428 20.7817 5.31766 20.8542 5.5 20.8542H16.5C16.6823 20.8542 16.8572 20.7817 16.9861 20.6528C17.1151 20.5239 17.1875 20.349 17.1875 20.1667C17.1875 19.9843 17.1151 19.8095 16.9861 19.6805C16.8572 19.5516 16.6823 19.4792 16.5 19.4792H14.0708L13.8967 18.612C13.8551 18.4043 13.743 18.2173 13.5792 18.083C13.4154 17.9486 13.2102 17.8751 12.9983 17.875H11.6875V14.6355C16.3625 14.1955 17.2233 9.21708 17.3809 5.2305C17.4268 4.07 17.4506 3.48883 17.0143 2.95258C16.5779 2.41542 16.0563 2.32742 15.0123 2.15142Z" fill="url(#paint1_linear_0_6)"/>
</g>
</g>
<defs>
<linearGradient id="paint0_linear_0_6" x1="7.604" y1="7.11809" x2="9.24452" y2="12.5837" gradientUnits="userSpaceOnUse">
<stop stop-color="#FCBE38"/>
<stop offset="1" stop-color="#FAA02A"/>
</linearGradient>
<linearGradient id="paint1_linear_0_6" x1="8.62737" y1="9.27832" x2="18.3662" y2="15.6203" gradientUnits="userSpaceOnUse">
<stop stop-color="#FCBE38"/>
<stop offset="1" stop-color="#FAA02A"/>
</linearGradient>
</defs>
</svg>
