<svg preserveAspectRatio="none" width="100%" height="100%" overflow="visible" style="display: block;" viewBox="0 0 32 32" fill="none" xmlns="http://www.w3.org/2000/svg">
<g id="maki:rocket">
<path id="Vector" d="M24.6507 4.26667C20.0747 4.26667 13.9392 7.4048 9.8176 12.8H6.4C3.93173 12.8 2.51733 14.6432 1.5424 16.5909L0.234667 19.2H6.4L9.6 22.4L12.8 25.6V31.7632L15.4091 30.4576C17.3568 29.4848 19.2 28.0683 19.2 25.6V22.1824C24.5952 18.0608 27.7333 11.9232 27.7333 7.34933V4.26667H24.6507ZM19.2 10.6667C19.7658 10.6667 20.3084 10.8914 20.7085 11.2915C21.1086 11.6916 21.3333 12.2342 21.3333 12.8C21.3333 13.3658 21.1086 13.9084 20.7085 14.3085C20.3084 14.7086 19.7658 14.9333 19.2 14.9333C18.6342 14.9333 18.0916 14.7086 17.6915 14.3085C17.2914 13.9084 17.0667 13.3658 17.0667 12.8C17.0667 12.2342 17.2914 11.6916 17.6915 11.2915C18.0916 10.8914 18.6342 10.6667 19.2 10.6667ZM5.33333 23.4667L4.26667 24.5333C2.7264 26.0736 2.13333 29.8667 2.13333 29.8667C2.13333 29.8667 5.75573 29.4443 7.46667 27.7333L8.53333 26.6667L5.33333 23.4667Z" fill="var(--fill-0, white)" fill-opacity="0.2"/>
</g>
</svg>
