<svg preserveAspectRatio="none" width="100%" height="100%" overflow="visible" style="display: block;" viewBox="0 0 28 28" fill="none" xmlns="http://www.w3.org/2000/svg">
<g id="solar:medal-star-circle-bold-duotone">
<path id="Vector" opacity="0.5" d="M15.1667 2.33333H12.8333C10.633 2.33333 9.534 2.33333 8.85033 3.017C8.16667 3.70067 8.16667 4.79967 8.16667 7V11.6667H19.8333V7C19.8333 4.79967 19.8333 3.70067 19.1497 3.017C18.466 2.33333 17.367 2.33333 15.1667 2.33333Z" fill="var(--fill-0, white)"/>
<path id="Vector_2" fill-rule="evenodd" clip-rule="evenodd" d="M14 25.6667C16.4754 25.6667 18.8493 24.6833 20.5997 22.933C22.35 21.1827 23.3333 18.8087 23.3333 16.3333C23.3333 13.858 22.35 11.484 20.5997 9.73367C18.8493 7.98333 16.4754 7 14 7C11.5246 7 9.15068 7.98333 7.40034 9.73367C5.65 11.484 4.66667 13.858 4.66667 16.3333C4.66667 18.8087 5.65 21.1827 7.40034 22.933C9.15068 24.6833 11.5246 25.6667 14 25.6667ZM14 12.8333C13.6687 12.8333 13.447 13.23 13.0037 14.0268L12.8893 14.2322C12.7633 14.4585 12.7003 14.5705 12.6023 14.6452C12.5032 14.7198 12.3807 14.7478 12.1357 14.8027L11.914 14.854C11.053 15.0488 10.6225 15.1457 10.5198 15.4747C10.4172 15.8037 10.7112 16.1478 11.298 16.8338L11.4497 17.0112C11.6165 17.206 11.7005 17.3028 11.7378 17.4242C11.7752 17.5455 11.7623 17.675 11.7378 17.9352L11.7145 18.172C11.6258 19.0878 11.5815 19.5463 11.8487 19.7493C12.117 19.9523 12.5207 19.7668 13.3268 19.3958L13.5345 19.3002C13.7643 19.1952 13.8787 19.1415 14 19.1415C14.1213 19.1415 14.2357 19.1952 14.4655 19.3002L14.6732 19.3958C15.4793 19.768 15.883 19.9523 16.1513 19.7493C16.4197 19.5463 16.3742 19.0878 16.2855 18.172L16.2622 17.9352C16.2377 17.675 16.2248 17.5455 16.2622 17.4242C16.2995 17.3028 16.3835 17.206 16.5503 17.0112L16.702 16.8338C17.2888 16.1478 17.5828 15.8048 17.4802 15.4747C17.3775 15.1457 16.947 15.0488 16.086 14.854L15.8643 14.8027C15.6193 14.7478 15.4968 14.721 15.3977 14.6452C15.2997 14.5705 15.2367 14.4585 15.1107 14.2322L14.9963 14.0268C14.553 13.23 14.3313 12.8333 14 12.8333Z" fill="var(--fill-0, white)"/>
</g>
</svg>
