<svg preserveAspectRatio="none" width="100%" height="100%" overflow="visible" style="display: block;" viewBox="0 0 38 38" fill="none" xmlns="http://www.w3.org/2000/svg">
<g id="solar:medal-star-circle-bold-duotone">
<path id="Vector" opacity="0.5" d="M20.5833 3.16667H17.4167C14.4305 3.16667 12.939 3.16667 12.0112 4.0945C11.0833 5.02233 11.0833 6.51383 11.0833 9.5V15.8333H26.9167V9.5C26.9167 6.51383 26.9167 5.02233 25.9888 4.0945C25.061 3.16667 23.5695 3.16667 20.5833 3.16667Z" fill="var(--fill-0, white)" fill-opacity="0.15"/>
<path id="Vector_2" fill-rule="evenodd" clip-rule="evenodd" d="M19 34.8333C22.3594 34.8333 25.5812 33.4988 27.9567 31.1234C30.3321 28.7479 31.6667 25.5261 31.6667 22.1667C31.6667 18.8073 30.3321 15.5854 27.9567 13.21C25.5812 10.8345 22.3594 9.5 19 9.5C15.6406 9.5 12.4188 10.8345 10.0433 13.21C7.66785 15.5854 6.33333 18.8073 6.33333 22.1667C6.33333 25.5261 7.66785 28.7479 10.0433 31.1234C12.4188 33.4988 15.6406 34.8333 19 34.8333ZM19 17.4167C18.5503 17.4167 18.2495 17.955 17.6478 19.0364L17.4927 19.3151C17.3217 19.6223 17.2362 19.7743 17.1032 19.8756C16.9686 19.9769 16.8023 20.0149 16.4698 20.0893L16.169 20.159C15.0005 20.4234 14.4162 20.5548 14.2769 21.0013C14.1376 21.4478 14.5366 21.9149 15.333 22.8459L15.5388 23.0866C15.7652 23.351 15.8792 23.4824 15.9299 23.6471C15.9806 23.8117 15.9632 23.9875 15.9299 24.3406L15.8982 24.662C15.7779 25.9049 15.7177 26.5272 16.0803 26.8027C16.4445 27.0782 16.9923 26.8264 18.0864 26.3229L18.3682 26.1931C18.6802 26.0506 18.8353 25.9777 19 25.9777C19.1647 25.9777 19.3198 26.0506 19.6317 26.1931L19.9136 26.3229C21.0077 26.828 21.5555 27.0782 21.9197 26.8027C22.2838 26.5272 22.2221 25.9049 22.1017 24.662L22.0701 24.3406C22.0368 23.9875 22.0194 23.8117 22.0701 23.6471C22.1207 23.4824 22.2347 23.351 22.4612 23.0866L22.667 22.8459C23.4634 21.9149 23.8624 21.4494 23.7231 21.0013C23.5837 20.5548 22.9995 20.4234 21.831 20.159L21.5302 20.0893C21.1977 20.0149 21.0314 19.9785 20.8968 19.8756C20.7638 19.7743 20.6783 19.6223 20.5073 19.3151L20.3522 19.0364C19.7505 17.955 19.4497 17.4167 19 17.4167Z" fill="var(--fill-0, white)" fill-opacity="0.15"/>
</g>
</svg>
