<svg width="16" height="16" viewBox="0 0 16 16" fill="none" xmlns="http://www.w3.org/2000/svg">
<path d="M6.0714 3.63199C6.47007 2.46533 8.08207 2.42999 8.55474 3.526L8.59474 3.63266L9.13274 5.20599C9.25603 5.56682 9.45527 5.897 9.71702 6.17428C9.97877 6.45155 10.2969 6.66947 10.6501 6.81333L10.7947 6.86733L12.3681 7.40466C13.5347 7.80333 13.5701 9.41533 12.4747 9.88799L12.3681 9.92799L10.7947 10.466C10.4338 10.5892 10.1035 10.7884 9.82608 11.0502C9.54869 11.3119 9.33067 11.6301 9.18674 11.9833L9.13274 12.1273L8.5954 13.7013C8.19674 14.868 6.58474 14.9033 6.11274 13.808L6.0714 13.7013L5.53407 12.128C5.41086 11.767 5.21165 11.4367 4.9499 11.1593C4.68814 10.8819 4.36993 10.6639 4.01674 10.52L3.87274 10.466L2.2994 9.92866C1.13207 9.52999 1.09674 7.91799 2.19274 7.44599L2.2994 7.40466L3.87274 6.86733C4.23356 6.74403 4.56374 6.54479 4.84102 6.28304C5.11829 6.02129 5.33621 5.70312 5.48007 5.34999L5.53407 5.20599L6.0714 3.63199ZM7.3334 4.06266L6.79607 5.63599C6.60833 6.1862 6.30292 6.68886 5.90109 7.10899C5.49927 7.52912 5.0107 7.85661 4.4694 8.06866L4.30274 8.12933L2.7294 8.66666L4.30274 9.20399C4.85294 9.39173 5.35561 9.69715 5.77573 10.099C6.19586 10.5008 6.52335 10.9894 6.7354 11.5307L6.79607 11.6973L7.3334 13.2707L7.87074 11.6973C8.05848 11.1471 8.36389 10.6445 8.76571 10.2243C9.16753 9.8042 9.65611 9.47671 10.1974 9.26466L10.3641 9.20466L11.9374 8.66666L10.3641 8.12933C9.81387 7.94159 9.3112 7.63617 8.89107 7.23435C8.47094 6.83253 8.14345 6.34396 7.9314 5.80266L7.8714 5.63599L7.3334 4.06266ZM12.6667 1.33333C12.7915 1.33333 12.9137 1.36831 13.0195 1.43431C13.1253 1.5003 13.2105 1.59466 13.2654 1.70666L13.2974 1.78466L13.5307 2.46866L14.2154 2.702C14.3404 2.74446 14.45 2.82307 14.5302 2.92787C14.6105 3.03267 14.6578 3.15894 14.6663 3.29068C14.6747 3.42241 14.6438 3.55368 14.5775 3.66785C14.5113 3.78202 14.4126 3.87395 14.2941 3.93199L14.2154 3.96399L13.5314 4.19733L13.2981 4.88199C13.2555 5.00695 13.1769 5.11646 13.072 5.19666C12.9672 5.27685 12.8409 5.32412 12.7092 5.33248C12.5774 5.34083 12.4462 5.30989 12.3321 5.24358C12.2179 5.17727 12.1261 5.07857 12.0681 4.95999L12.0361 4.88199L11.8027 4.19799L11.1181 3.96466C10.9931 3.9222 10.8835 3.84358 10.8033 3.73878C10.723 3.63398 10.6756 3.50772 10.6672 3.37598C10.6588 3.24425 10.6897 3.11297 10.7559 2.9988C10.8222 2.88463 10.9208 2.7927 11.0394 2.73466L11.1181 2.70266L11.8021 2.46933L12.0354 1.78466C12.0804 1.65295 12.1654 1.5386 12.2786 1.45766C12.3918 1.37672 12.5276 1.33324 12.6667 1.33333Z" fill="white"/>
</svg>
