<svg width="16" height="16" viewBox="0 0 16 16" fill="none" xmlns="http://www.w3.org/2000/svg">
<path d="M6.82531 3.00865C6.82531 2.69711 6.94907 2.39833 7.16937 2.17804C7.38966 1.95774 7.68844 1.83398 7.99998 1.83398C8.31152 1.83398 8.6103 1.95774 8.8306 2.17804C9.05089 2.39833 9.17465 2.69711 9.17465 3.00865V5.93398L13.6633 8.29065C13.7709 8.34715 13.861 8.43198 13.9238 8.53597C13.9867 8.63995 14.0199 8.75914 14.02 8.88065V9.16798C14.02 9.22687 14.0071 9.28504 13.9821 9.33835C13.957 9.39165 13.9205 9.43877 13.8752 9.47634C13.8299 9.51392 13.7768 9.54102 13.7198 9.5557C13.6627 9.57039 13.6032 9.57231 13.5453 9.56132L9.17465 8.73465V11.4727C9.17454 11.5452 9.19414 11.6164 9.23136 11.6786C9.26859 11.7408 9.32203 11.7918 9.38598 11.826L10.6273 12.49C10.7868 12.5754 10.9202 12.7025 11.0132 12.8577C11.1061 13.0129 11.1553 13.1904 11.1553 13.3713V13.6693C11.1553 13.7292 11.1419 13.7884 11.116 13.8424C11.0901 13.8964 11.0524 13.9439 11.0057 13.9814C10.959 14.0189 10.9045 14.0454 10.8461 14.059C10.7878 14.0726 10.7271 14.073 10.6686 14.06L7.99998 13.47L5.33131 14.06C5.27283 14.073 5.21218 14.0726 5.15384 14.059C5.0955 14.0454 5.04096 14.0189 4.99425 13.9814C4.94753 13.9439 4.90984 13.8964 4.88395 13.8424C4.85805 13.7884 4.84462 13.7292 4.84465 13.6693V13.3713C4.8447 13.1904 4.89383 13.0129 4.98681 12.8577C5.07979 12.7025 5.21314 12.5754 5.37265 12.49L6.61398 11.8253C6.67783 11.7912 6.73121 11.7403 6.76843 11.6782C6.80564 11.6161 6.82531 11.5451 6.82531 11.4727V8.73532L2.45465 9.56065C2.3968 9.57164 2.33723 9.56973 2.28021 9.55504C2.22318 9.54035 2.1701 9.51325 2.12476 9.47568C2.07942 9.4381 2.04293 9.39098 2.0179 9.33768C1.99288 9.28438 1.97993 9.2262 1.97998 9.16732V8.88065C1.9799 8.75903 2.01309 8.6397 2.07595 8.53559C2.13882 8.43147 2.22897 8.34654 2.33665 8.28998L6.82531 5.93398V3.00865Z" stroke="#344054" stroke-linecap="round" stroke-linejoin="round"/>
</svg>
