<svg width="22" height="22" viewBox="0 0 22 22" fill="none" xmlns="http://www.w3.org/2000/svg">
<path d="M5.80783 11.6693L11.6422 5.83489C11.9232 5.554 12.2567 5.3312 12.6238 5.17921C12.9909 5.02722 13.3843 4.94902 13.7816 4.94907C14.1789 4.94912 14.5723 5.02742 14.9393 5.17951C15.3063 5.33159 15.6398 5.55448 15.9207 5.83544C16.2016 6.1164 16.4244 6.44994 16.5764 6.81701C16.7284 7.18408 16.8066 7.57749 16.8065 7.97478C16.8065 8.37207 16.7281 8.76546 16.5761 9.13249C16.424 9.49952 16.2011 9.833 15.9201 10.1139L8.91973 17.1143C8.66169 17.3723 8.31171 17.5173 7.94678 17.5173C7.58185 17.5173 7.23187 17.3723 6.97383 17.1143C6.71579 16.8562 6.57082 16.5063 6.57082 16.1413C6.57082 15.7764 6.71579 15.4264 6.97383 15.1684L13.1965 8.94569C13.3423 8.7893 13.4216 8.58245 13.4178 8.36872C13.4141 8.15499 13.3275 7.95106 13.1763 7.79991C13.0252 7.64875 12.8212 7.56217 12.6075 7.5584C12.3938 7.55463 12.1869 7.63396 12.0305 7.77969L5.80783 14.0024C5.2404 14.5698 4.92162 15.3394 4.92162 16.1419C4.92162 16.9444 5.2404 17.714 5.80783 18.2814C6.37526 18.8488 7.14486 19.1676 7.94733 19.1676C8.7498 19.1676 9.5194 18.8488 10.0868 18.2814L17.0861 11.2799C17.946 10.3998 18.4242 9.2161 18.4171 7.98567C18.4099 6.75523 17.9179 5.57723 17.0479 4.70717C16.1778 3.8371 14.9998 3.34514 13.7694 3.33797C12.5389 3.3308 11.3553 3.80902 10.4751 4.66889L4.64183 10.5022C4.4961 10.6586 4.41677 10.8654 4.42054 11.0792C4.42431 11.2929 4.51089 11.4968 4.66205 11.648C4.8132 11.7991 5.01713 11.8857 5.23086 11.8895C5.44459 11.8933 5.65144 11.8139 5.80783 11.6682" fill="#168AAD"/>
</svg>
