<svg width="20" height="20" viewBox="0 0 20 20" fill="none" xmlns="http://www.w3.org/2000/svg">
<path fill-rule="evenodd" clip-rule="evenodd" d="M17.8805 4.51333C17.9597 4.63351 17.995 4.77732 17.9804 4.92049C17.9658 5.06366 17.9023 5.19741 17.8005 5.29917L10.1397 12.9592C10.0613 13.0375 9.96356 13.0936 9.85638 13.1217L6.66554 13.955C6.56007 13.9825 6.44923 13.982 6.34404 13.9534C6.23884 13.9248 6.14295 13.8692 6.06587 13.7922C5.98879 13.7151 5.93322 13.6192 5.90465 13.514C5.87609 13.4088 5.87553 13.298 5.90304 13.1925L6.73638 10.0025C6.76129 9.90697 6.80712 9.81816 6.87054 9.7425L14.5597 2.05833C14.6769 1.94129 14.8358 1.87555 15.0014 1.87555C15.167 1.87555 15.3259 1.94129 15.443 2.05833L17.8005 4.415C17.8297 4.4457 17.8564 4.47857 17.8805 4.51333ZM16.4747 4.85667L15.0014 3.38417L7.90304 10.4825L7.38221 12.4767L9.37638 11.9558L16.4747 4.85667Z" fill="black"/>
<path d="M16.3682 14.3C16.5959 12.3533 16.6687 10.3916 16.5857 8.43334C16.5837 8.38718 16.5914 8.34113 16.6081 8.29809C16.6249 8.25506 16.6505 8.21598 16.6832 8.18334L17.5032 7.36334C17.5256 7.3408 17.554 7.32522 17.5851 7.31846C17.6161 7.3117 17.6485 7.31404 17.6782 7.32522C17.7079 7.3364 17.7338 7.35593 17.7527 7.38147C17.7717 7.407 17.7828 7.43746 17.7848 7.46917C17.9387 9.79521 17.8802 12.1304 17.6098 14.4458C17.4132 16.1308 16.0598 17.4517 14.3823 17.6392C11.4701 17.9615 8.53122 17.9615 5.619 17.6392C3.94233 17.4517 2.58816 16.1308 2.3915 14.4458C2.04658 11.492 2.04658 8.50802 2.3915 5.55417C2.58816 3.86917 3.9415 2.54834 5.619 2.36084C7.82937 2.11671 10.0563 2.05734 12.2765 2.18334C12.3083 2.18562 12.3387 2.19696 12.3643 2.21601C12.3898 2.23507 12.4093 2.26104 12.4205 2.29085C12.4318 2.32067 12.4342 2.35307 12.4276 2.38423C12.421 2.41539 12.4055 2.444 12.3832 2.46667L11.5557 3.29334C11.5233 3.32571 11.4846 3.35107 11.4421 3.36785C11.3995 3.38462 11.3539 3.39245 11.3082 3.39084C9.45546 3.32738 7.60059 3.3984 5.75816 3.60334C5.21978 3.66293 4.7172 3.90227 4.33162 4.28271C3.94604 4.66315 3.69997 5.16247 3.63316 5.7C3.29888 8.55692 3.29888 11.4431 3.63316 14.3C3.69997 14.8375 3.94604 15.3369 4.33162 15.7173C4.7172 16.0977 5.21978 16.3371 5.75816 16.3967C8.554 16.7092 11.4473 16.7092 14.244 16.3967C14.7824 16.3371 15.285 16.0977 15.6705 15.7173C16.0561 15.3369 16.3014 14.8375 16.3682 14.3Z" fill="black"/>
</svg>
