<svg width="22" height="22" viewBox="0 0 22 22" fill="none" xmlns="http://www.w3.org/2000/svg">
<path d="M18.5625 5.32813H15.6406L14.9445 3.37734C14.8964 3.24386 14.8083 3.12847 14.6922 3.04695C14.5761 2.96543 14.4376 2.92175 14.2957 2.92188H7.7043C7.41426 2.92188 7.1543 3.10449 7.05762 3.37734L6.35938 5.32813H3.4375C2.48789 5.32813 1.71875 6.09727 1.71875 7.04688V16.8438C1.71875 17.7934 2.48789 18.5625 3.4375 18.5625H18.5625C19.5121 18.5625 20.2812 17.7934 20.2812 16.8438V7.04688C20.2812 6.09727 19.5121 5.32813 18.5625 5.32813ZM18.7344 16.8438C18.7344 16.9383 18.657 17.0156 18.5625 17.0156H3.4375C3.34297 17.0156 3.26562 16.9383 3.26562 16.8438V7.04688C3.26562 6.95234 3.34297 6.875 3.4375 6.875H7.44863L7.81602 5.84805L8.30801 4.46875H13.6898L14.1818 5.84805L14.5492 6.875H18.5625C18.657 6.875 18.7344 6.95234 18.7344 7.04688V16.8438ZM11 8.25C9.10078 8.25 7.5625 9.78828 7.5625 11.6875C7.5625 13.5867 9.10078 15.125 11 15.125C12.8992 15.125 14.4375 13.5867 14.4375 11.6875C14.4375 9.78828 12.8992 8.25 11 8.25ZM11 13.75C9.86133 13.75 8.9375 12.8262 8.9375 11.6875C8.9375 10.5488 9.86133 9.625 11 9.625C12.1387 9.625 13.0625 10.5488 13.0625 11.6875C13.0625 12.8262 12.1387 13.75 11 13.75Z" fill="#168AAD"/>
</svg>
