<svg width="36" height="36" viewBox="0 0 36 36" fill="none" xmlns="http://www.w3.org/2000/svg">
<path d="M17.9999 3.59961C16.5677 3.59961 15.1942 4.16854 14.1815 5.18123C13.1688 6.19393 12.5999 7.56744 12.5999 8.99961C12.5999 10.4318 13.1688 11.8053 14.1815 12.818C15.1942 13.8307 16.5677 14.3996 17.9999 14.3996C19.4321 14.3996 20.8056 13.8307 21.8183 12.818C22.831 11.8053 23.3999 10.4318 23.3999 8.99961C23.3999 7.56744 22.831 6.19393 21.8183 5.18123C20.8056 4.16854 19.4321 3.59961 17.9999 3.59961ZM9.09531 17.9924C9.03411 18.2852 9.00351 18.5876 9.00351 18.8996V25.1996C9.00234 26.5064 9.28633 27.7977 9.83567 28.9835C10.385 30.1692 11.1865 31.2208 12.1841 32.0648L11.8763 32.1548C10.9629 32.3998 10.0103 32.4625 9.07265 32.3393C8.13506 32.216 7.23092 31.9093 6.41188 31.4366C5.59284 30.9639 4.87494 30.3345 4.29919 29.5843C3.72343 28.8341 3.3011 27.9778 3.05631 27.0644L1.89171 22.7174C1.79998 22.3749 1.77662 22.0177 1.82296 21.6661C1.86929 21.3146 1.98442 20.9756 2.16176 20.6686C2.3391 20.3615 2.57519 20.0924 2.85654 19.8766C3.13789 19.6608 3.45899 19.5025 3.80151 19.4108L9.09531 17.9924ZM29.6999 7.19961C28.5064 7.19961 27.3618 7.67372 26.5179 8.51763C25.674 9.36154 25.1999 10.5061 25.1999 11.6996C25.1999 12.8931 25.674 14.0377 26.5179 14.8816C27.3618 15.7255 28.5064 16.1996 29.6999 16.1996C30.8934 16.1996 32.038 15.7255 32.8819 14.8816C33.7258 14.0377 34.1999 12.8931 34.1999 11.6996C34.1999 10.5061 33.7258 9.36154 32.8819 8.51763C32.038 7.67372 30.8934 7.19961 29.6999 7.19961ZM6.29991 7.19961C5.10644 7.19961 3.96184 7.67372 3.11793 8.51763C2.27402 9.36154 1.79991 10.5061 1.79991 11.6996C1.79991 12.8931 2.27402 14.0377 3.11793 14.8816C3.96184 15.7255 5.10644 16.1996 6.29991 16.1996C7.49339 16.1996 8.63798 15.7255 9.48189 14.8816C10.3258 14.0377 10.7999 12.8931 10.7999 11.6996C10.7999 10.5061 10.3258 9.36154 9.48189 8.51763C8.63798 7.67372 7.49339 7.19961 6.29991 7.19961ZM13.4999 16.1996C12.7838 16.1996 12.0971 16.4841 11.5907 16.9904C11.0844 17.4968 10.7999 18.1835 10.7999 18.8996V25.1996C10.8 26.183 11.0014 27.156 11.392 28.0585C11.7825 28.961 12.3537 29.774 13.0705 30.4473C13.7873 31.1205 14.6344 31.6398 15.5596 31.9731C16.4848 32.3064 17.4684 32.4467 18.4499 32.3852C17.3888 31.0934 16.6719 29.5539 16.3662 27.9103C16.0604 26.2667 16.1757 24.5725 16.7013 22.9855C17.2269 21.3984 18.1457 19.9703 19.372 18.8341C20.5984 17.6979 22.0924 16.8907 23.7149 16.4876C23.338 16.298 22.9219 16.1994 22.4999 16.1996H13.4999ZM34.1999 26.0996C34.1999 28.2479 33.3465 30.3081 31.8275 31.8272C30.3084 33.3462 28.2482 34.1996 26.0999 34.1996C23.9517 34.1996 21.8914 33.3462 20.3723 31.8272C18.8533 30.3081 17.9999 28.2479 17.9999 26.0996C17.9999 23.9514 18.8533 21.8911 20.3723 20.372C21.8914 18.853 23.9517 17.9996 26.0999 17.9996C28.2482 17.9996 30.3084 18.853 31.8275 20.372C33.3465 21.8911 34.1999 23.9514 34.1999 26.0996ZM26.9999 22.4996C26.9999 22.2609 26.9051 22.032 26.7363 21.8632C26.5675 21.6944 26.3386 21.5996 26.0999 21.5996C25.8612 21.5996 25.6323 21.6944 25.4635 21.8632C25.2947 22.032 25.1999 22.2609 25.1999 22.4996V25.1996H22.4999C22.2612 25.1996 22.0323 25.2944 21.8635 25.4632C21.6947 25.632 21.5999 25.8609 21.5999 26.0996C21.5999 26.3383 21.6947 26.5672 21.8635 26.736C22.0323 26.9048 22.2612 26.9996 22.4999 26.9996H25.1999V29.6996C25.1999 29.9383 25.2947 30.1672 25.4635 30.336C25.6323 30.5048 25.8612 30.5996 26.0999 30.5996C26.3386 30.5996 26.5675 30.5048 26.7363 30.336C26.9051 30.1672 26.9999 29.9383 26.9999 29.6996V26.9996H29.6999C29.9386 26.9996 30.1675 26.9048 30.3363 26.736C30.5051 26.5672 30.5999 26.3383 30.5999 26.0996C30.5999 25.8609 30.5051 25.632 30.3363 25.4632C30.1675 25.2944 29.9386 25.1996 29.6999 25.1996H26.9999V22.4996Z" fill="white"/>
</svg>
