<svg width="36" height="36" viewBox="0 0 36 36" fill="none" xmlns="http://www.w3.org/2000/svg">
<path d="M2.25 31.5C2.25 31.5 0 31.5 0 29.25C0 27 2.25 20.25 13.5 20.25C24.75 20.25 27 27 27 29.25C27 31.5 24.75 31.5 24.75 31.5H2.25ZM13.5 18C15.2902 18 17.0071 17.2888 18.273 16.023C19.5388 14.7571 20.25 13.0402 20.25 11.25C20.25 9.45979 19.5388 7.7429 18.273 6.47703C17.0071 5.21116 15.2902 4.5 13.5 4.5C11.7098 4.5 9.9929 5.21116 8.72703 6.47703C7.46116 7.7429 6.75 9.45979 6.75 11.25C6.75 13.0402 7.46116 14.7571 8.72703 16.023C9.9929 17.2888 11.7098 18 13.5 18Z" fill="white"/>
<path fill-rule="evenodd" clip-rule="evenodd" d="M30.375 11.25C30.6734 11.25 30.9595 11.3685 31.1705 11.5795C31.3815 11.7905 31.5 12.0766 31.5 12.375V15.75H34.875C35.1734 15.75 35.4595 15.8685 35.6705 16.0795C35.8815 16.2905 36 16.5766 36 16.875C36 17.1734 35.8815 17.4595 35.6705 17.6705C35.4595 17.8815 35.1734 18 34.875 18H31.5V21.375C31.5 21.6734 31.3815 21.9595 31.1705 22.1705C30.9595 22.3815 30.6734 22.5 30.375 22.5C30.0766 22.5 29.7905 22.3815 29.5795 22.1705C29.3685 21.9595 29.25 21.6734 29.25 21.375V18H25.875C25.5766 18 25.2905 17.8815 25.0795 17.6705C24.8685 17.4595 24.75 17.1734 24.75 16.875C24.75 16.5766 24.8685 16.2905 25.0795 16.0795C25.2905 15.8685 25.5766 15.75 25.875 15.75H29.25V12.375C29.25 12.0766 29.3685 11.7905 29.5795 11.5795C29.7905 11.3685 30.0766 11.25 30.375 11.25Z" fill="white"/>
</svg>
