<svg width="21" height="21" viewBox="0 0 21 21" fill="none" xmlns="http://www.w3.org/2000/svg">
<g clip-path="url(#clip0_1952_4343)">
<path d="M18.375 3.93835H17.0625V19.0321C17.0625 19.3055 17.0112 19.5619 16.9087 19.8011C16.8062 20.0404 16.666 20.2489 16.4883 20.4266C16.3105 20.6044 16.1021 20.7445 15.8628 20.847C15.6235 20.9496 15.3672 21.0009 15.0938 21.0009H4.59375C4.32031 21.0009 4.06396 20.9496 3.82471 20.847C3.58545 20.7445 3.37695 20.6044 3.19922 20.4266C3.02148 20.2489 2.88135 20.0404 2.77881 19.8011C2.67627 19.5619 2.625 19.3055 2.625 19.0321V3.93835H1.3125V2.62585H6.5625V1.31335C6.5625 1.12878 6.59668 0.957886 6.66504 0.800659C6.7334 0.643433 6.82568 0.506714 6.94189 0.390503C7.05811 0.274292 7.19824 0.178589 7.3623 0.103394C7.52637 0.0281982 7.69727 -0.00598145 7.875 0.000854492H11.8125C11.9971 0.000854492 12.168 0.0350342 12.3252 0.103394C12.4824 0.171753 12.6191 0.264038 12.7354 0.380249C12.8516 0.49646 12.9473 0.636597 13.0225 0.800659C13.0977 0.964722 13.1318 1.13562 13.125 1.31335V2.62585H18.375V3.93835ZM7.875 2.62585H11.8125V1.31335H7.875V2.62585ZM15.75 3.93835H3.9375V19.0321C3.9375 19.2098 4.00244 19.3636 4.13232 19.4935C4.26221 19.6234 4.41602 19.6884 4.59375 19.6884H15.0938C15.2715 19.6884 15.4253 19.6234 15.5552 19.4935C15.6851 19.3636 15.75 19.2098 15.75 19.0321V3.93835ZM7.875 17.0634H6.5625V6.56335H7.875V17.0634ZM10.5 17.0634H9.1875V6.56335H10.5V17.0634ZM13.125 17.0634H11.8125V6.56335H13.125V17.0634Z" fill="#168AAD"/>
</g>
<defs>
<clipPath id="clip0_1952_4343">
<rect width="21" height="21" fill="white"/>
</clipPath>
</defs>
</svg>
