<svg width="13" height="13" viewBox="0 0 13 13" fill="none" xmlns="http://www.w3.org/2000/svg">
<path d="M7.62317 2.10527C8.02682 1.66794 8.22865 1.44928 8.44309 1.32174C8.96055 1.01398 9.59776 1.00441 10.1239 1.29649C10.3419 1.41754 10.5499 1.63005 10.966 2.05506C11.382 2.48008 11.5901 2.69258 11.7085 2.91532C11.9945 3.45276 11.9851 4.10366 11.6838 4.63228C11.559 4.85136 11.3449 5.05753 10.9168 5.46986L5.82316 10.3759C5.0119 11.1573 4.60625 11.548 4.09928 11.746C3.59232 11.944 3.03499 11.9295 1.92032 11.9003L1.76867 11.8964C1.42933 11.8875 1.25966 11.883 1.16103 11.7711C1.0624 11.6592 1.07586 11.4863 1.1028 11.1407L1.11742 10.953C1.19322 9.98005 1.23111 9.49363 1.4211 9.05634C1.61107 8.61906 1.93878 8.26405 2.59419 7.55392L7.62317 2.10527Z" stroke="white" stroke-width="1.5" stroke-linejoin="round"/>
<path d="M7.04175 2.16602L10.8334 5.95768" stroke="white" stroke-width="1.5" stroke-linejoin="round"/>
<path d="M7.58325 11.916H11.9166" stroke="white" stroke-width="1.5" stroke-linecap="round" stroke-linejoin="round"/>
</svg>
