<svg width="16" height="16" viewBox="0 0 16 16" fill="none" xmlns="http://www.w3.org/2000/svg">
<path d="M3.769 13L4.763 12H12V7C12 6.338 11.84 5.714 11.555 5.164L12.288 4.426C12.74 5.178 13 6.06 13 7V12H14.5C14.6326 12 14.7598 12.0527 14.8536 12.1464C14.9473 12.2402 15 12.3674 15 12.5C15 12.6326 14.9473 12.7598 14.8536 12.8536C14.7598 12.9473 14.6326 13 14.5 13H3.769ZM2.359 13H1.5C1.36739 13 1.24021 12.9473 1.14645 12.8536C1.05268 12.7598 1 12.6326 1 12.5C1 12.3674 1.05268 12.2402 1.14645 12.1464C1.24021 12.0527 1.36739 12 1.5 12H3V7C3.00015 5.84745 3.3983 4.73031 4.12715 3.83747C4.856 2.94463 5.87081 2.33088 7 2.1V2C7 1.73478 7.10536 1.48043 7.29289 1.29289C7.48043 1.10536 7.73478 1 8 1C8.26522 1 8.51957 1.10536 8.70711 1.29289C8.89464 1.48043 9 1.73478 9 2V2.1C10.0316 2.31027 10.9703 2.84122 11.682 3.617L10.976 4.327C10.4352 3.72478 9.72433 3.30082 8.93744 3.11112C8.15056 2.92142 7.32463 2.97491 6.56879 3.26453C5.81294 3.55415 5.16275 4.06626 4.7041 4.73321C4.24546 5.40016 3.99994 6.19057 4 7V11.349L2.36 13H2.359ZM7 14H9C9 14.2652 8.89464 14.5196 8.70711 14.7071C8.51957 14.8946 8.26522 15 8 15C7.73478 15 7.48043 14.8946 7.29289 14.7071C7.10536 14.5196 7 14.2652 7 14Z" fill="#272727"/>
<path d="M2.35493 13.4229C2.26103 13.5144 2.13492 13.5654 2.00377 13.5649C1.87262 13.5643 1.74694 13.5123 1.65381 13.4199C1.56068 13.3276 1.50756 13.2024 1.5059 13.0712C1.50424 12.9401 1.55417 12.8135 1.64493 12.7189L12.6449 1.64788C12.7388 1.55632 12.8649 1.50532 12.9961 1.50586C13.1272 1.50641 13.2529 1.55847 13.346 1.65081C13.4392 1.74315 13.4923 1.86839 13.494 1.99952C13.4956 2.13066 13.4457 2.2572 13.3549 2.35188L2.35493 13.4229Z" fill="#272727"/>
</svg>
