<svg width="19" height="19" viewBox="0 0 19 19" fill="none" xmlns="http://www.w3.org/2000/svg">
<path fill-rule="evenodd" clip-rule="evenodd" d="M2.4603 9.17957C2.9022 9.78901 3.80787 10.9374 5.00045 11.9372C6.237 12.9739 7.68493 13.7696 9.17988 13.7696C10.6748 13.7696 12.1228 12.9739 13.3593 11.9372C14.5519 10.9374 15.4576 9.78901 15.8995 9.17957C15.4576 8.57013 14.5519 7.42178 13.3593 6.42197C12.1228 5.38529 10.6748 4.58957 9.17988 4.58957C7.68493 4.58957 6.237 5.38529 5.00045 6.42197C3.80787 7.42178 2.9022 8.57013 2.4603 9.17957ZM4.01749 5.24949C5.36521 4.11961 7.15744 3.05957 9.17988 3.05957C11.2023 3.05957 12.9946 4.11961 14.3423 5.24949C15.7031 6.39033 16.7099 7.68563 17.1751 8.33272C17.5411 8.84172 17.5411 9.51742 17.1751 10.0264C16.7099 10.6735 15.7031 11.9688 14.3423 13.1096C12.9946 14.2395 11.2023 15.2996 9.17988 15.2996C7.15744 15.2996 5.36521 14.2395 4.01749 13.1096C2.6567 11.9688 1.64984 10.6735 1.18462 10.0264C0.818669 9.51742 0.818668 8.84172 1.18462 8.33272C1.64984 7.68563 2.6567 6.39033 4.01749 5.24949Z" fill="#ACB5BB"/>
<path fill-rule="evenodd" clip-rule="evenodd" d="M9.17988 10.7096C10.0249 10.7096 10.7099 10.0246 10.7099 9.17957C10.7099 8.33457 10.0249 7.64957 9.17988 7.64957C8.33489 7.64957 7.64988 8.33457 7.64988 9.17957C7.64988 10.0246 8.33489 10.7096 9.17988 10.7096ZM9.17988 12.2396C10.8699 12.2396 12.2399 10.8696 12.2399 9.17957C12.2399 7.48958 10.8699 6.11957 9.17988 6.11957C7.48989 6.11957 6.11988 7.48958 6.11988 9.17957C6.11988 10.8696 7.48989 12.2396 9.17988 12.2396Z" fill="#ACB5BB"/>
</svg>
