<svg width="16" height="16" viewBox="0 0 16 16" fill="none" xmlns="http://www.w3.org/2000/svg">
<path d="M5.66691 4.33333C5.66691 4.02692 5.72726 3.7235 5.84452 3.44041C5.96178 3.15731 6.13366 2.90009 6.35033 2.68342C6.567 2.46675 6.82422 2.29488 7.10731 2.17761C7.39041 2.06035 7.69382 2 8.00024 2C8.30666 2 8.61008 2.06035 8.89317 2.17761C9.17626 2.29488 9.43349 2.46675 9.65016 2.68342C9.86683 2.90009 10.0387 3.15731 10.156 3.44041C10.2732 3.7235 10.3336 4.02692 10.3336 4.33333C10.3336 4.95217 10.0877 5.54566 9.65016 5.98325C9.21257 6.42083 8.61908 6.66667 8.00024 6.66667C7.3814 6.66667 6.78791 6.42083 6.35033 5.98325C5.91274 5.54566 5.66691 4.95217 5.66691 4.33333ZM3.00024 7.33333C3.44227 7.33333 3.86619 7.15774 4.17875 6.84518C4.49131 6.53262 4.66691 6.10869 4.66691 5.66667C4.66691 5.22464 4.49131 4.80072 4.17875 4.48816C3.86619 4.17559 3.44227 4 3.00024 4C2.55821 4 2.13429 4.17559 1.82173 4.48816C1.50917 4.80072 1.33358 5.22464 1.33358 5.66667C1.33358 6.10869 1.50917 6.53262 1.82173 6.84518C2.13429 7.15774 2.55821 7.33333 3.00024 7.33333ZM14.6669 5.66667C14.6669 6.10869 14.4913 6.53262 14.1788 6.84518C13.8662 7.15774 13.4423 7.33333 13.0002 7.33333C12.5582 7.33333 12.1343 7.15774 11.8217 6.84518C11.5092 6.53262 11.3336 6.10869 11.3336 5.66667C11.3336 5.22464 11.5092 4.80072 11.8217 4.48816C12.1343 4.17559 12.5582 4 13.0002 4C13.4423 4 13.8662 4.17559 14.1788 4.48816C14.4913 4.80072 14.6669 5.22464 14.6669 5.66667ZM7.00024 8C6.08024 8 5.33358 8.74667 5.33358 9.66667V11.3333C5.33358 12.0406 5.61453 12.7189 6.11462 13.219C6.61472 13.719 7.293 14 8.00024 14C8.70749 14 9.38576 13.719 9.88586 13.219C10.386 12.7189 10.6669 12.0406 10.6669 11.3333V9.66667C10.6669 8.74667 9.92024 8 9.00024 8H7.00024ZM4.00024 9.66667C4.00024 9.28133 4.07224 8.91333 4.20558 8.576L2.56424 9.016C2.13752 9.13039 1.77368 9.40951 1.55266 9.79204C1.33165 10.1746 1.27155 10.6292 1.38558 11.056L1.64424 12.0227C1.73491 12.361 1.89132 12.6781 2.10457 12.956C2.31781 13.2338 2.5837 13.4669 2.88705 13.642C3.19039 13.8171 3.52526 13.9307 3.87252 13.9763C4.21978 14.022 4.57262 13.9987 4.91091 13.908L4.93358 13.9013C4.33068 13.1814 4.00029 12.2724 4.00024 11.3333V9.66667ZM12.0002 11.3333C12.0002 12.3107 11.6496 13.2067 11.0669 13.9027L11.0882 13.908C11.7713 14.0909 12.4989 13.995 13.1113 13.6414C13.7236 13.2879 14.1705 12.7056 14.3536 12.0227L14.6122 11.056C14.7263 10.6292 14.6662 10.1746 14.4452 9.79204C14.2241 9.40951 13.8603 9.13039 13.4336 9.016L11.7962 8.576C11.9282 8.91467 12.0002 9.28267 12.0002 9.66667V11.3333Z" fill="#373737"/>
</svg>
