<svg width="36" height="36" viewBox="0 0 36 36" fill="none" xmlns="http://www.w3.org/2000/svg">
<path d="M1.5 25.8C1.5 24.95 1.719 24.169 2.157 23.457C2.595 22.745 3.176 22.201 3.9 21.825C5.45 21.05 7.025 20.469 8.625 20.082C10.225 19.695 11.85 19.501 13.5 19.5C15.15 19.499 16.775 19.693 18.375 20.082C19.975 20.471 21.55 21.052 23.1 21.825C23.825 22.2 24.4065 22.744 24.8445 23.457C25.2825 24.17 25.501 24.951 25.5 25.8V27C25.5 27.825 25.2065 28.5315 24.6195 29.1195C24.0325 29.7075 23.326 30.001 22.5 30H4.5C3.675 30 2.969 29.7065 2.382 29.1195C1.795 28.5325 1.501 27.826 1.5 27V25.8ZM27.675 30C27.95 29.55 28.1565 29.069 28.2945 28.557C28.4325 28.045 28.501 27.526 28.5 27V25.5C28.5 24.4 28.194 23.3435 27.582 22.3305C26.97 21.3175 26.101 20.449 24.975 19.725C26.25 19.875 27.45 20.1315 28.575 20.4945C29.7 20.8575 30.75 21.301 31.725 21.825C32.625 22.325 33.3125 22.881 33.7875 23.493C34.2625 24.105 34.5 24.774 34.5 25.5V27C34.5 27.825 34.2065 28.5315 33.6195 29.1195C33.0325 29.7075 32.326 30.001 31.5 30H27.675ZM13.5 18C11.85 18 10.4375 17.4125 9.2625 16.2375C8.0875 15.0625 7.5 13.65 7.5 12C7.5 10.35 8.0875 8.93754 9.2625 7.76254C10.4375 6.58754 11.85 6.00004 13.5 6.00004C15.15 6.00004 16.5625 6.58754 17.7375 7.76254C18.9125 8.93754 19.5 10.35 19.5 12C19.5 13.65 18.9125 15.0625 17.7375 16.2375C16.5625 17.4125 15.15 18 13.5 18ZM28.5 12C28.5 13.65 27.9125 15.0625 26.7375 16.2375C25.5625 17.4125 24.15 18 22.5 18C22.225 18 21.875 17.969 21.45 17.907C21.025 17.845 20.675 17.776 20.4 17.7C21.075 16.9 21.594 16.0125 21.957 15.0375C22.32 14.0625 22.501 13.05 22.5 12C22.499 10.95 22.318 9.93754 21.957 8.96254C21.596 7.98754 21.077 7.10004 20.4 6.30004C20.75 6.17504 21.1 6.09354 21.45 6.05554C21.8 6.01754 22.15 5.99904 22.5 6.00004C24.15 6.00004 25.5625 6.58754 26.7375 7.76254C27.9125 8.93754 28.5 10.35 28.5 12Z" fill="white"/>
</svg>
