<svg width="24" height="24" viewBox="0 0 24 24" fill="none" xmlns="http://www.w3.org/2000/svg">
<rect width="24" height="24" fill="#F0FFFE"/>
<path d="M12.0002 2C10.4587 1.99995 8.95462 2.47491 7.69268 3.36021C6.43073 4.24552 5.47224 5.49818 4.94765 6.94769C4.42306 8.3972 4.35785 9.97315 4.76092 11.461C5.16398 12.9489 6.01573 14.2765 7.20023 15.263C8.19023 16.089 9.00023 17.21 9.00023 18.5H15.0002C15.0002 17.21 15.8102 16.089 16.8002 15.262C17.9843 14.2754 18.8357 12.9479 19.2386 11.4602C19.6414 9.97249 19.5761 8.39679 19.0515 6.94752C18.527 5.49824 17.5687 4.24577 16.307 3.36051C15.0453 2.47525 13.5415 2.0002 12.0002 2Z" stroke="#0D9488" stroke-width="1.5"/>
<path d="M15 18.5H9V20.5C9 20.8978 9.15804 21.2794 9.43934 21.5607C9.72064 21.842 10.1022 22 10.5 22H13.5C13.8978 22 14.2794 21.842 14.5607 21.5607C14.842 21.2794 15 20.8978 15 20.5V18.5Z" stroke="#0D9488" stroke-width="1.5" stroke-linejoin="round"/>
<path d="M10 8C10 6.987 10.895 6 12 6C13.105 6 14 6.82 14 7.833C14 8.198 13.884 8.538 13.683 8.824C13.085 9.676 12 10.488 12 11.5" stroke="#0D9488" stroke-width="1.5" stroke-linecap="round"/>
<path d="M11.9922 14H12.0012" stroke="#0D9488" stroke-width="2" stroke-linecap="round" stroke-linejoin="round"/>
</svg>
