<svg width="24" height="24" viewBox="0 0 24 24" fill="none" xmlns="http://www.w3.org/2000/svg">
<path d="M19.75 11V10C19.75 6.229 19.75 4.343 18.579 3.172C17.408 2.001 15.52 2 11.75 2H10.75C6.98 2 5.093 2 3.922 3.172C2.751 4.344 2.75 6.229 2.75 10V14C2.75 17.771 2.75 19.657 3.922 20.828C5.094 21.999 6.979 22 10.75 22" stroke="black" stroke-width="1.5" stroke-linecap="round" stroke-linejoin="round"/>
<path d="M7.25 7H15.25M7.25 12H15.25" stroke="black" stroke-width="1.5" stroke-linecap="round"/>
<path d="M13.25 20.827V22H14.424C14.833 22 15.038 22 15.222 21.924C15.406 21.848 15.551 21.703 15.84 21.414L20.664 16.589C20.937 16.316 21.074 16.179 21.146 16.033C21.285 15.753 21.285 15.423 21.146 15.143C21.073 14.996 20.936 14.86 20.664 14.587C20.39 14.314 20.254 14.177 20.107 14.104C19.9687 14.0353 19.8164 13.9995 19.662 13.9995C19.5076 13.9995 19.3553 14.0353 19.217 14.104C19.07 14.177 18.933 14.314 18.661 14.587L13.837 19.411C13.547 19.7 13.403 19.845 13.327 20.029C13.251 20.213 13.25 20.417 13.25 20.827Z" stroke="black" stroke-width="1.5" stroke-linejoin="round"/>
</svg>
