<svg width="20" height="20" viewBox="0 0 20 20" fill="none" xmlns="http://www.w3.org/2000/svg">
<path fill-rule="evenodd" clip-rule="evenodd" d="M13.3249 6.52033C13.3841 6.46338 13.4539 6.41866 13.5304 6.38872C13.6068 6.35877 13.6885 6.3442 13.7706 6.34583C13.8527 6.34745 13.9337 6.36524 14.0089 6.39819C14.0842 6.43113 14.1522 6.47858 14.209 6.53783L17.1174 9.56866C17.2289 9.68502 17.2912 9.83997 17.2912 10.0012C17.2912 10.1623 17.2289 10.3173 17.1174 10.4337L14.209 13.4645C14.1522 13.5237 14.0842 13.5711 14.0091 13.6041C13.9339 13.637 13.8529 13.6548 13.7709 13.6565C13.6888 13.6581 13.6072 13.6436 13.5308 13.6138C13.4543 13.5839 13.3845 13.5393 13.3253 13.4824C13.2661 13.4256 13.2187 13.3576 13.1857 13.2824C13.1528 13.2072 13.135 13.1263 13.1333 13.0442C13.1316 12.9622 13.1462 12.8806 13.176 12.8041C13.2059 12.7277 13.2505 12.6579 13.3074 12.5987L15.1999 10.6262H9.39404C9.22828 10.6262 9.06931 10.5603 8.9521 10.4431C8.83489 10.3259 8.76904 10.1669 8.76904 10.0012C8.76904 9.8354 8.83489 9.67643 8.9521 9.55922C9.06931 9.44201 9.22828 9.37616 9.39404 9.37616H15.2007L13.3074 7.40366C13.1927 7.28406 13.1303 7.12383 13.1337 6.9582C13.1371 6.79256 13.2062 6.63507 13.3257 6.52033" fill="#004256"/>
<path fill-rule="evenodd" clip-rule="evenodd" d="M2.70825 3.33398C2.70825 3.16822 2.7741 3.00925 2.89131 2.89204C3.00852 2.77483 3.16749 2.70898 3.33325 2.70898H11.2124C11.3782 2.70898 11.5371 2.77483 11.6544 2.89204C11.7716 3.00925 11.8374 3.16822 11.8374 3.33398V5.83398C11.8374 5.99974 11.7716 6.15872 11.6544 6.27593C11.5371 6.39314 11.3782 6.45898 11.2124 6.45898C11.0467 6.45898 10.8877 6.39314 10.7705 6.27593C10.6533 6.15872 10.5874 5.99974 10.5874 5.83398V3.95898H3.95825V16.0423H10.5866V14.1673C10.5866 14.0016 10.6524 13.8426 10.7696 13.7254C10.8869 13.6082 11.0458 13.5423 11.2116 13.5423C11.3773 13.5423 11.5363 13.6082 11.6535 13.7254C11.7707 13.8426 11.8366 14.0016 11.8366 14.1673V16.6673C11.8366 16.8331 11.7707 16.992 11.6535 17.1093C11.5363 17.2265 11.3773 17.2923 11.2116 17.2923H3.33325C3.16749 17.2923 3.00852 17.2265 2.89131 17.1093C2.7741 16.992 2.70825 16.8331 2.70825 16.6673V3.33398Z" fill="#004256"/>
</svg>
