<svg width="22" height="22" viewBox="0 0 22 22" fill="none" xmlns="http://www.w3.org/2000/svg">
<path d="M11 11.9141C12.5188 11.9141 13.75 10.6828 13.75 9.16406C13.75 7.64528 12.5188 6.41406 11 6.41406C9.48122 6.41406 8.25 7.64528 8.25 9.16406C8.25 10.6828 9.48122 11.9141 11 11.9141Z" stroke="#168AAD" stroke-width="1.5" stroke-linecap="round" stroke-linejoin="round"/>
<path d="M11.0003 1.83203C9.0554 1.83203 7.19014 2.60465 5.81488 3.97991C4.43961 5.35518 3.66699 7.22044 3.66699 9.16536C3.66699 10.8997 4.03549 12.0345 5.04199 13.2904L11.0003 20.1654L16.9587 13.2904C17.9652 12.0345 18.3337 10.8997 18.3337 9.16536C18.3337 7.22044 17.561 5.35518 16.1858 3.97991C14.8105 2.60465 12.9452 1.83203 11.0003 1.83203Z" stroke="#168AAD" stroke-width="1.5" stroke-linecap="round" stroke-linejoin="round"/>
</svg>
