<svg width="14" height="14" viewBox="0 0 14 14" fill="none" xmlns="http://www.w3.org/2000/svg">
<path d="M7.46323 1.33759C7.57263 1.22823 7.72097 1.16679 7.87565 1.16679C8.03033 1.16679 8.17868 1.22823 8.28807 1.33759L10.0381 3.08759C10.1474 3.19698 10.2089 3.34532 10.2089 3.5C10.2089 3.65468 10.1474 3.80303 10.0381 3.91242L8.28807 5.66242C8.17805 5.76868 8.0307 5.82747 7.87775 5.82615C7.7248 5.82482 7.5785 5.76347 7.47034 5.65531C7.36219 5.54716 7.30084 5.40085 7.29951 5.2479C7.29818 5.09495 7.35698 4.9476 7.46323 4.83759L8.21748 4.08334H7.29232C5.22265 4.08334 3.50065 5.80534 3.50065 7.875C3.50065 9.94467 5.22265 11.6667 7.29232 11.6667C9.36198 11.6667 11.084 9.94467 11.084 7.875C11.084 7.72029 11.1454 7.57192 11.2548 7.46252C11.3642 7.35313 11.5126 7.29167 11.6673 7.29167C11.822 7.29167 11.9704 7.35313 12.0798 7.46252C12.1892 7.57192 12.2507 7.72029 12.2507 7.875C12.2507 10.5887 10.006 12.8333 7.29232 12.8333C4.57865 12.8333 2.33398 10.5887 2.33398 7.875C2.33398 5.16134 4.57865 2.91667 7.29232 2.91667H8.21748L7.46323 2.16242C7.35388 2.05303 7.29244 1.90468 7.29244 1.75C7.29244 1.59532 7.35388 1.44698 7.46323 1.33759Z" fill="#3D3D3D"/>
</svg>
