<svg width="21" height="21" viewBox="0 0 21 21" fill="none" xmlns="http://www.w3.org/2000/svg">
<path d="M4.94681 17.0625L6.25144 15.75H15.75V9.1875C15.75 8.31862 15.54 7.49963 15.1659 6.77775L16.128 5.80913C16.7213 6.79613 17.0625 7.95375 17.0625 9.1875V15.75H19.0312C19.2053 15.75 19.3722 15.8191 19.4953 15.9422C19.6184 16.0653 19.6875 16.2322 19.6875 16.4062C19.6875 16.5803 19.6184 16.7472 19.4953 16.8703C19.3722 16.9934 19.2053 17.0625 19.0312 17.0625H4.94681ZM3.09619 17.0625H1.96875C1.7947 17.0625 1.62778 16.9934 1.50471 16.8703C1.38164 16.7472 1.3125 16.5803 1.3125 16.4062C1.3125 16.2322 1.38164 16.0653 1.50471 15.9422C1.62778 15.8191 1.7947 15.75 1.96875 15.75H3.9375V9.1875C3.93769 7.67478 4.46028 6.20853 5.41689 5.03668C6.3735 3.86483 7.70544 3.05929 9.1875 2.75625V2.625C9.1875 2.2769 9.32578 1.94306 9.57192 1.69692C9.81806 1.45078 10.1519 1.3125 10.5 1.3125C10.8481 1.3125 11.1819 1.45078 11.4281 1.69692C11.6742 1.94306 11.8125 2.2769 11.8125 2.625V2.75625C13.1664 3.03222 14.3985 3.72911 15.3326 4.74731L14.406 5.67919C13.6961 4.88878 12.7632 4.33232 11.7304 4.08334C10.6976 3.83436 9.61358 3.90457 8.62153 4.2847C7.62948 4.66482 6.7761 5.33697 6.17413 6.21234C5.57216 7.08772 5.24993 8.12512 5.25 9.1875V14.8956L3.0975 17.0625H3.09619ZM9.1875 18.375H11.8125C11.8125 18.7231 11.6742 19.0569 11.4281 19.3031C11.1819 19.5492 10.8481 19.6875 10.5 19.6875C10.1519 19.6875 9.81806 19.5492 9.57192 19.3031C9.32578 19.0569 9.1875 18.7231 9.1875 18.375Z" fill="#004256"/>
<path d="M3.09096 17.6176C2.96772 17.7378 2.8022 17.8048 2.63007 17.804C2.45794 17.8033 2.29298 17.735 2.17075 17.6138C2.04852 17.4926 1.9788 17.3282 1.97662 17.1561C1.97443 16.984 2.03997 16.8179 2.15909 16.6936L16.5966 2.16296C16.7198 2.04279 16.8854 1.97585 17.0575 1.97657C17.2296 1.97729 17.3946 2.04561 17.5168 2.16681C17.639 2.28801 17.7088 2.45238 17.7109 2.6245C17.7131 2.79662 17.6476 2.9627 17.5285 3.08696L3.09096 17.6176Z" fill="#004256"/>
</svg>
