<svg width="20" height="20" viewBox="0 0 20 20" fill="none" xmlns="http://www.w3.org/2000/svg">
<path d="M11.2498 10.3527C10.7798 10.3527 10.3846 10.1924 10.064 9.87188C9.74344 9.55132 9.58316 9.15604 9.58316 8.68604C9.58316 8.21604 9.74344 7.82076 10.064 7.50021C10.3846 7.17965 10.7798 7.01938 11.2498 7.01938C11.7198 7.01938 12.1151 7.17965 12.4357 7.50021C12.7562 7.82076 12.9165 8.21604 12.9165 8.68604C12.9165 9.15604 12.7562 9.55132 12.4357 9.87188C12.1151 10.1924 11.7198 10.3527 11.2498 10.3527ZM6.08983 13.0135C5.71928 13.0135 5.40233 12.8816 5.139 12.6177C4.87511 12.3538 4.74316 12.0369 4.74316 11.6669V5.70521C4.74316 5.33521 4.87511 5.01854 5.139 4.75521C5.40289 4.49187 5.71955 4.35993 6.089 4.35938H16.4098C16.7804 4.35938 17.0973 4.49104 17.3607 4.75438C17.624 5.01771 17.7559 5.33465 17.7565 5.70521V11.6669C17.7565 12.0369 17.6246 12.3535 17.3607 12.6169C17.0973 12.8813 16.7807 13.0135 16.4107 13.0135H6.08983ZM6.92316 12.1802H15.5765C15.5765 11.8069 15.7084 11.4891 15.9723 11.2269C16.2357 10.9647 16.5523 10.8335 16.9223 10.8335V6.53854C16.5501 6.53854 16.2329 6.40688 15.9707 6.14354C15.7079 5.87965 15.5765 5.56271 15.5765 5.19271H6.92316C6.92316 5.56549 6.79122 5.88299 6.52733 6.14521C6.264 6.40743 5.94733 6.53854 5.57733 6.53854V10.8335C5.94955 10.8335 6.26705 10.9655 6.52983 11.2294C6.79205 11.4927 6.92316 11.8094 6.92316 12.1794M14.8715 15.5127H3.58983C3.21928 15.5127 2.90233 15.381 2.639 15.1177C2.37511 14.8538 2.24316 14.5369 2.24316 14.1669V7.24354C2.24316 7.12576 2.28316 7.02688 2.36316 6.94688C2.44316 6.86688 2.54233 6.82688 2.66066 6.82688C2.779 6.82688 2.87789 6.86688 2.95733 6.94688C3.03678 7.02688 3.0765 7.12576 3.0765 7.24354V14.1669C3.0765 14.2947 3.12983 14.4122 3.2365 14.5194C3.34372 14.6266 3.4615 14.6802 3.58983 14.6802H14.8715C14.9898 14.6802 15.0887 14.7199 15.1682 14.7994C15.2482 14.8794 15.2882 14.9785 15.2882 15.0969C15.2882 15.2152 15.2482 15.3141 15.1682 15.3935C15.0882 15.473 14.9893 15.5122 14.8715 15.5127ZM6.08983 12.1802H5.5765V5.19188H6.08983C5.95094 5.19188 5.83066 5.24271 5.729 5.34438C5.62733 5.44604 5.5765 5.56604 5.5765 5.70437V11.6669C5.5765 11.8058 5.62733 11.926 5.729 12.0277C5.83066 12.1294 5.95094 12.1802 6.08983 12.1802Z" fill="#344054"/>
</svg>
