<svg width="28" height="28" viewBox="0 0 28 28" fill="none" xmlns="http://www.w3.org/2000/svg">
<path d="M15.0497 13.7602C15.0497 14.0153 14.9741 14.2647 14.8323 14.4768C14.6906 14.689 14.4891 14.8543 14.2534 14.952C14.0177 15.0496 13.7583 15.0751 13.5081 15.0254C13.2578 14.9756 13.028 14.8527 12.8476 14.6723C12.6671 14.4919 12.5443 14.2621 12.4945 14.0118C12.4447 13.7616 12.4703 13.5022 12.5679 13.2665C12.6656 13.0308 12.8309 12.8293 13.043 12.6876C13.2552 12.5458 13.5046 12.4702 13.7597 12.4702C14.1019 12.4702 14.43 12.6061 14.6719 12.848C14.9138 13.0899 15.0497 13.418 15.0497 13.7602ZM13.7597 7.74016C14.0149 7.74016 14.2643 7.6645 14.4764 7.52275C14.6886 7.38101 14.8539 7.17954 14.9515 6.94382C15.0492 6.7081 15.0747 6.44873 15.0249 6.19849C14.9752 5.94826 14.8523 5.7184 14.6719 5.53799C14.4915 5.35758 14.2616 5.23472 14.0114 5.18494C13.7612 5.13517 13.5018 5.16072 13.2661 5.25835C13.0303 5.35599 12.8289 5.52133 12.6871 5.73347C12.5454 5.94561 12.4697 6.19502 12.4697 6.45016C12.4697 6.79229 12.6056 7.1204 12.8476 7.36232C13.0895 7.60425 13.4176 7.74016 13.7597 7.74016ZM13.7597 19.7802C13.5046 19.7802 13.2552 19.8558 13.043 19.9976C12.8309 20.1393 12.6656 20.3408 12.5679 20.5765C12.4703 20.8122 12.4447 21.0716 12.4945 21.3218C12.5443 21.5721 12.6671 21.8019 12.8476 21.9823C13.028 22.1627 13.2578 22.2856 13.5081 22.3354C13.7583 22.3851 14.0177 22.3596 14.2534 22.262C14.4891 22.1643 14.6906 21.999 14.8323 21.7868C14.9741 21.5747 15.0497 21.3253 15.0497 21.0702C15.0497 20.728 14.9138 20.3999 14.6719 20.158C14.43 19.9161 14.1019 19.7802 13.7597 19.7802Z" fill="black"/>
</svg>
