<svg width="20" height="20" viewBox="0 0 20 20" fill="none" xmlns="http://www.w3.org/2000/svg">
<path d="M8.87588 18.0183C8.81006 18.1334 8.70935 18.2246 8.58831 18.2786C8.46728 18.3327 8.33218 18.3469 8.20255 18.3192L8.09671 18.2967C7.65583 18.2022 7.23961 18.0165 6.87485 17.7514C6.5101 17.4864 6.20489 17.1479 5.97889 16.7577C5.75288 16.3676 5.61109 15.9344 5.56263 15.4862C5.51417 15.0379 5.56013 14.5844 5.69755 14.155L6.22755 12.5H5.28005C3.07588 12.5 1.51921 10.3408 2.21671 8.25L3.51588 4.35167C3.69566 3.81248 4.04052 3.34351 4.50161 3.01119C4.96271 2.67886 5.51667 2.50002 6.08505 2.5H10.4925C11.3517 2.5 12.1834 2.795 12.8492 3.3325C12.9676 3.08333 13.1542 2.87285 13.3874 2.7255C13.6206 2.57814 13.8909 2.49995 14.1667 2.5H16.0417C16.8467 2.5 17.5 3.15333 17.5 3.95833V11.0417C17.5 11.4284 17.3464 11.7994 17.0729 12.0729C16.7994 12.3464 16.4285 12.5 16.0417 12.5H12.15C12.1133 12.5 12.0773 12.5097 12.0455 12.5282C12.0137 12.5466 11.9874 12.5731 11.9692 12.605L8.87588 18.0183ZM12.7084 4.86667L12.1384 4.36833C11.6827 3.96975 11.0979 3.75004 10.4925 3.75H6.08505C5.77895 3.75006 5.48064 3.84643 5.23236 4.02545C4.98409 4.20448 4.79844 4.45709 4.70171 4.7475L3.40255 8.645C3.30339 8.9425 3.27634 9.2593 3.32363 9.56931C3.37092 9.87931 3.4912 10.1736 3.67455 10.428C3.85791 10.6824 4.09909 10.8896 4.37822 11.0325C4.65736 11.1754 4.96646 11.25 5.28005 11.25H7.08338C7.18179 11.25 7.27881 11.2733 7.36653 11.3179C7.45426 11.3625 7.5302 11.4272 7.5882 11.5067C7.64619 11.5862 7.68458 11.6783 7.70025 11.7755C7.71592 11.8726 7.70843 11.9721 7.67838 12.0658L6.88838 14.5358C6.73592 15.0117 6.76914 15.5277 6.98137 15.9802C7.19359 16.4326 7.56912 16.788 8.03255 16.975L10.8842 11.985C11.0117 11.7618 11.1959 11.5763 11.4182 11.4472C11.6405 11.3181 11.893 11.2501 12.15 11.25H12.7084V4.86667ZM13.9584 11.25H16.0417C16.097 11.25 16.15 11.2281 16.189 11.189C16.2281 11.1499 16.25 11.0969 16.25 11.0417V3.95833C16.25 3.90308 16.2281 3.85009 16.189 3.81102C16.15 3.77195 16.097 3.75 16.0417 3.75H14.1667C14.1115 3.75 14.0585 3.77195 14.0194 3.81102C13.9803 3.85009 13.9584 3.90308 13.9584 3.95833V11.25Z" fill="#004256"/>
</svg>
