<svg width="16" height="16" viewBox="0 0 16 16" fill="none" xmlns="http://www.w3.org/2000/svg">
<g clip-path="url(#clip0_2635_7425)">
<path d="M7.99984 9.99935C9.10441 9.99935 9.99984 9.10392 9.99984 7.99935C9.99984 6.89478 9.10441 5.99935 7.99984 5.99935C6.89527 5.99935 5.99984 6.89478 5.99984 7.99935C5.99984 9.10392 6.89527 9.99935 7.99984 9.99935Z" stroke="#344054" stroke-width="1.2" stroke-linecap="round" stroke-linejoin="round"/>
<path d="M12.9332 9.99935C12.8444 10.2004 12.818 10.4235 12.8572 10.6397C12.8964 10.856 12.9995 11.0556 13.1532 11.2127L13.1932 11.2527C13.3171 11.3765 13.4155 11.5236 13.4826 11.6854C13.5497 11.8473 13.5842 12.0208 13.5842 12.196C13.5842 12.3712 13.5497 12.5447 13.4826 12.7066C13.4155 12.8685 13.3171 13.0155 13.1932 13.1393C13.0693 13.2633 12.9223 13.3617 12.7604 13.4288C12.5986 13.4959 12.4251 13.5304 12.2498 13.5304C12.0746 13.5304 11.9011 13.4959 11.7392 13.4288C11.5774 13.3617 11.4303 13.2633 11.3065 13.1393L11.2665 13.0993C11.1094 12.9457 10.9098 12.8426 10.6936 12.8033C10.4773 12.7641 10.2542 12.7906 10.0532 12.8793C9.85599 12.9639 9.68783 13.1042 9.56937 13.283C9.45092 13.4619 9.38736 13.6715 9.3865 13.886V13.9993C9.3865 14.353 9.24603 14.6921 8.99598 14.9422C8.74593 15.1922 8.40679 15.3327 8.05317 15.3327C7.69955 15.3327 7.36041 15.1922 7.11036 14.9422C6.86031 14.6921 6.71984 14.353 6.71984 13.9993V13.9393C6.71468 13.7187 6.64325 13.5047 6.51484 13.3251C6.38644 13.1456 6.20699 13.0089 5.99984 12.9327C5.79876 12.8439 5.57571 12.8175 5.35944 12.8567C5.14318 12.8959 4.94362 12.999 4.7865 13.1527L4.7465 13.1927C4.62267 13.3167 4.47562 13.415 4.31376 13.4821C4.15189 13.5492 3.97839 13.5837 3.80317 13.5837C3.62795 13.5837 3.45445 13.5492 3.29258 13.4821C3.13072 13.415 2.98367 13.3167 2.85984 13.1927C2.73587 13.0689 2.63752 12.9218 2.57042 12.7599C2.50333 12.5981 2.46879 12.4246 2.46879 12.2493C2.46879 12.0741 2.50333 11.9006 2.57042 11.7388C2.63752 11.5769 2.73587 11.4298 2.85984 11.306L2.89984 11.266C3.05353 11.1089 3.15663 10.9093 3.19584 10.6931C3.23505 10.4768 3.20858 10.2538 3.11984 10.0527C3.03533 9.8555 2.89501 9.68734 2.71615 9.56889C2.53729 9.45044 2.32769 9.38687 2.11317 9.38602H1.99984C1.64622 9.38602 1.30708 9.24554 1.05703 8.99549C0.80698 8.74544 0.666504 8.4063 0.666504 8.05268C0.666504 7.69906 0.80698 7.35992 1.05703 7.10987C1.30708 6.85982 1.64622 6.71935 1.99984 6.71935H2.05984C2.2805 6.71419 2.49451 6.64276 2.67404 6.51436C2.85357 6.38595 2.99031 6.20651 3.0665 5.99935C3.15525 5.79827 3.18172 5.57522 3.14251 5.35896C3.10329 5.14269 3.00019 4.94313 2.8465 4.78602L2.8065 4.74602C2.68254 4.62218 2.58419 4.47513 2.51709 4.31327C2.44999 4.1514 2.41545 3.9779 2.41545 3.80268C2.41545 3.62746 2.44999 3.45396 2.51709 3.2921C2.58419 3.13023 2.68254 2.98318 2.8065 2.85935C2.93033 2.73538 3.07739 2.63703 3.23925 2.56994C3.40111 2.50284 3.57462 2.4683 3.74984 2.4683C3.92506 2.4683 4.09856 2.50284 4.26042 2.56994C4.42229 2.63703 4.56934 2.73538 4.69317 2.85935L4.73317 2.89935C4.89029 3.05304 5.08985 3.15614 5.30611 3.19535C5.52237 3.23456 5.74543 3.20809 5.9465 3.11935H5.99984C6.19702 3.03484 6.36518 2.89452 6.48363 2.71566C6.60208 2.5368 6.66565 2.32721 6.6665 2.11268V1.99935C6.6665 1.64573 6.80698 1.30659 7.05703 1.05654C7.30708 0.806491 7.64621 0.666016 7.99984 0.666016C8.35346 0.666016 8.6926 0.806491 8.94265 1.05654C9.19269 1.30659 9.33317 1.64573 9.33317 1.99935V2.05935C9.33403 2.27387 9.39759 2.48347 9.51604 2.66233C9.63449 2.84119 9.80266 2.98151 9.99984 3.06602C10.2009 3.15476 10.424 3.18123 10.6402 3.14202C10.8565 3.10281 11.0561 2.99971 11.2132 2.84602L11.2532 2.80602C11.377 2.68205 11.5241 2.5837 11.6859 2.5166C11.8478 2.4495 12.0213 2.41497 12.1965 2.41497C12.3717 2.41497 12.5452 2.4495 12.7071 2.5166C12.869 2.5837 13.016 2.68205 13.1398 2.80602C13.2638 2.92985 13.3622 3.0769 13.4292 3.23876C13.4963 3.40063 13.5309 3.57413 13.5309 3.74935C13.5309 3.92457 13.4963 4.09807 13.4292 4.25994C13.3622 4.4218 13.2638 4.56885 13.1398 4.69268L13.0998 4.73268C12.9461 4.8898 12.843 5.08936 12.8038 5.30562C12.7646 5.52189 12.7911 5.74494 12.8798 5.94602V5.99935C12.9643 6.19653 13.1047 6.36469 13.2835 6.48314C13.4624 6.60159 13.672 6.66516 13.8865 6.66602H13.9998C14.3535 6.66602 14.6926 6.80649 14.9426 7.05654C15.1927 7.30659 15.3332 7.64573 15.3332 7.99935C15.3332 8.35297 15.1927 8.69211 14.9426 8.94216C14.6926 9.19221 14.3535 9.33268 13.9998 9.33268H13.9398C13.7253 9.33354 13.5157 9.3971 13.3369 9.51555C13.158 9.634 13.0177 9.80217 12.9332 9.99935Z" stroke="#344054" stroke-width="1.2" stroke-linecap="round" stroke-linejoin="round"/>
</g>
<defs>
<clipPath id="clip0_2635_7425">
<rect width="16" height="16" fill="white"/>
</clipPath>
</defs>
</svg>
