<svg width="10" height="10" viewBox="0 0 10 10" fill="none" xmlns="http://www.w3.org/2000/svg">
<g clip-path="url(#clip0_120_4763)">
<path d="M5.41693 6.87492C5.41693 6.98543 5.37303 7.09141 5.29489 7.16955C5.21675 7.24769 5.11077 7.29159 5.00026 7.29159C4.88976 7.29159 4.78378 7.24769 4.70564 7.16955C4.6275 7.09141 4.5836 6.98543 4.5836 6.87492C4.5836 6.76441 4.6275 6.65843 4.70564 6.58029C4.78378 6.50215 4.88976 6.45825 5.00026 6.45825C5.11077 6.45825 5.21675 6.50215 5.29489 6.58029C5.37303 6.65843 5.41693 6.76441 5.41693 6.87492ZM4.36818 3.68117C4.41485 3.58825 4.47985 3.5045 4.57151 3.44367C4.6611 3.38325 4.79443 3.33325 5.00026 3.33325C5.16026 3.33325 5.31943 3.38242 5.4311 3.46617C5.4847 3.50387 5.5281 3.55429 5.55741 3.61291C5.58672 3.67152 5.60101 3.7365 5.59901 3.802C5.59901 4.002 5.50818 4.1395 5.34068 4.29617C5.28537 4.34703 5.22854 4.39622 5.17026 4.44367L5.04776 4.54742C4.94526 4.63617 4.82943 4.74492 4.74026 4.87867L4.68776 4.95784V5.62492C4.68776 5.7078 4.72069 5.78728 4.77929 5.84589C4.8379 5.90449 4.91738 5.93742 5.00026 5.93742C5.08314 5.93742 5.16263 5.90449 5.22124 5.84589C5.27984 5.78728 5.31276 5.7078 5.31276 5.62492V5.15825C5.35026 5.11659 5.39735 5.07159 5.45735 5.0195C5.4836 4.99659 5.51568 4.96992 5.54985 4.94159C5.61901 4.88325 5.69901 4.81659 5.76651 4.75325C5.98985 4.54492 6.22401 4.25325 6.22401 3.802C6.22593 3.63947 6.189 3.47884 6.11631 3.33346C6.04362 3.18808 5.93727 3.06216 5.8061 2.96617C5.5711 2.7895 5.27443 2.70825 5.00026 2.70825C4.68526 2.70825 4.42818 2.78784 4.22485 2.92367C4.04683 3.04393 3.90356 3.20889 3.80943 3.402C3.77583 3.47567 3.77213 3.55949 3.79911 3.63583C3.8261 3.71217 3.88165 3.77505 3.95408 3.81124C4.02651 3.84743 4.11015 3.85409 4.1874 3.82983C4.26464 3.80557 4.32945 3.75227 4.36818 3.68117Z" fill="#168AAD"/>
<path d="M4.10957 0.500055C4.36765 0.310635 4.67943 0.208496 4.99957 0.208496C5.3197 0.208496 5.63149 0.310635 5.88957 0.500055L6.46248 0.920888C6.57665 1.00422 6.70957 1.05964 6.84957 1.08089L7.55207 1.18881C7.86847 1.23732 8.16115 1.38551 8.38753 1.61181C8.61392 1.83812 8.7622 2.13075 8.81082 2.44714L8.91873 3.15005C8.93998 3.29005 8.99498 3.42297 9.07873 3.53714L9.49957 4.11006C9.68899 4.36814 9.79113 4.67992 9.79113 5.00005C9.79113 5.32019 9.68899 5.63197 9.49957 5.89005L9.07873 6.46297C8.99485 6.57714 8.93994 6.70998 8.91873 6.85006L8.81082 7.55256C8.7623 7.86896 8.61412 8.16164 8.38781 8.38802C8.1615 8.6144 7.86887 8.76269 7.55248 8.8113L6.84957 8.91922C6.70949 8.94043 6.57666 8.99534 6.46248 9.07922L5.88957 9.50005C5.63149 9.68948 5.3197 9.79161 4.99957 9.79161C4.67943 9.79161 4.36765 9.68948 4.10957 9.50005L3.53665 9.07922C3.42248 8.99534 3.28964 8.94043 3.14957 8.91922L2.44707 8.8113C2.13066 8.76279 1.83799 8.6146 1.6116 8.3883C1.38522 8.16199 1.23693 7.86936 1.18832 7.55297L1.0804 6.85006C1.05919 6.70998 1.00428 6.57714 0.9204 6.46297L0.499567 5.89005C0.310147 5.63197 0.208008 5.32019 0.208008 5.00005C0.208008 4.67992 0.310147 4.36814 0.499567 4.11006L0.9204 3.53714C1.00415 3.42297 1.05915 3.29005 1.0804 3.15005L1.18832 2.44756C1.23683 2.13115 1.38502 1.83847 1.61133 1.61209C1.83763 1.38571 2.13026 1.23742 2.44665 1.18881L3.14957 1.08089C3.28957 1.05964 3.42248 1.00464 3.53665 0.920888L4.10957 0.500055ZM5.51957 1.00381C5.36876 0.893181 5.1866 0.833535 4.99957 0.833535C4.81253 0.833535 4.63038 0.893181 4.47957 1.00381L3.90623 1.42464C3.71093 1.56818 3.48375 1.66225 3.24415 1.69881L2.54165 1.80631C2.35665 1.83466 2.18552 1.92131 2.05317 2.05366C1.92083 2.18601 1.83417 2.35713 1.80582 2.54214L1.69832 3.24464C1.66183 3.48439 1.56775 3.71171 1.42415 3.90714L1.00332 4.48005C0.892693 4.63086 0.833046 4.81302 0.833046 5.00005C0.833046 5.18709 0.892693 5.36925 1.00332 5.52006L1.42415 6.09339C1.56769 6.28869 1.66176 6.51587 1.69832 6.75547L1.80582 7.45797C1.83425 7.6429 1.92094 7.81394 2.05328 7.9462C2.18562 8.07846 2.3567 8.16506 2.54165 8.19339L3.24415 8.30172C3.48386 8.33809 3.71119 8.43202 3.90665 8.57547L4.47957 8.99631C4.63038 9.10693 4.81253 9.16658 4.99957 9.16658C5.1866 9.16658 5.36876 9.10693 5.51957 8.99631L6.0929 8.57547C6.2882 8.43193 6.51538 8.33786 6.75498 8.30131L7.45748 8.19381C7.64241 8.16537 7.81345 8.07868 7.94571 7.94634C8.07797 7.814 8.16457 7.64292 8.1929 7.45797L8.30123 6.75547C8.3376 6.51576 8.43153 6.28844 8.57498 6.09297L8.99582 5.52006C9.10644 5.36925 9.16609 5.18709 9.16609 5.00005C9.16609 4.81302 9.10644 4.63086 8.99582 4.48005L8.57498 3.90672C8.43145 3.71142 8.33737 3.48424 8.30082 3.24464L8.19332 2.54214C8.16496 2.35713 8.07831 2.18601 7.94596 2.05366C7.81362 1.92131 7.64249 1.83466 7.45748 1.80631L6.75498 1.69881C6.51523 1.66231 6.28791 1.56824 6.09248 1.42464L5.51957 1.00381Z" fill="#168AAD"/>
</g>
<defs>
<clipPath id="clip0_120_4763">
<rect width="10" height="10" fill="white"/>
</clipPath>
</defs>
</svg>
