<svg width="17" height="12" viewBox="0 0 17 12" fill="none" xmlns="http://www.w3.org/2000/svg">
<path d="M6.11523 8.91895C7.53499 7.69327 9.61435 7.69341 11.0342 8.91895C11.1056 8.98488 11.1474 9.07847 11.1494 9.17676C11.1513 9.27496 11.1136 9.36967 11.0449 9.43848L8.82129 11.7285C8.75619 11.7957 8.66776 11.8339 8.5752 11.834C8.48248 11.834 8.3933 11.7958 8.32812 11.7285L6.10449 9.43848C6.03588 9.36964 5.99805 9.27493 6 9.17676C6.00204 9.07847 6.04375 8.98483 6.11523 8.91895ZM3.10938 6.17871C6.16845 3.27412 10.9058 3.27412 13.9648 6.17871C14.0337 6.24672 14.0731 6.33971 14.0742 6.4375C14.0752 6.53552 14.0374 6.63066 13.9697 6.7002L12.6846 8.02539C12.5521 8.16057 12.338 8.16393 12.2021 8.03223C11.1976 7.10375 9.89127 6.58884 8.53613 6.58887C7.18182 6.58944 5.87596 7.10432 4.87207 8.03223C4.73622 8.16385 4.52206 8.16063 4.38965 8.02539L3.10449 6.7002C3.03666 6.63077 2.99909 6.53555 3 6.4375C3.00103 6.33975 3.04056 6.24669 3.10938 6.17871ZM0.107422 3.44238C4.7993 -1.14736 12.2007 -1.14729 16.8926 3.44238C16.9604 3.51048 16.9993 3.60309 17 3.7002C17.0006 3.79725 16.9634 3.89101 16.8965 3.95996L15.6094 5.28613C15.4769 5.422 15.2616 5.42369 15.127 5.29004C13.3393 3.55527 10.9666 2.58702 8.5 2.58691C6.03337 2.58703 3.66077 3.55527 1.87305 5.29004C1.73849 5.42383 1.523 5.42225 1.39062 5.28613L0.103516 3.95996C0.0366205 3.89095 -0.000625796 3.79729 0 3.7002C0.000701458 3.60306 0.0395239 3.51045 0.107422 3.44238Z" fill="black"/>
</svg>
