<svg width="24" height="24" viewBox="0 0 24 24" fill="none" xmlns="http://www.w3.org/2000/svg">
<path d="M21.44 11.05L12.25 20.24C11.1242 21.3658 9.59718 21.9983 8.005 21.9983C6.41282 21.9983 4.88584 21.3658 3.76 20.24C2.63416 19.1142 2.00171 17.5872 2.00171 15.995C2.00171 14.4028 2.63416 12.8758 3.76 11.75L12.95 2.56C13.7006 1.80942 14.7185 1.38782 15.78 1.38782C16.8415 1.38782 17.8594 1.80942 18.61 2.56C19.3606 3.31058 19.7822 4.32852 19.7822 5.39C19.7822 6.45148 19.3606 7.46942 18.61 8.22L9.41 17.41C9.03475 17.7853 8.52573 17.9961 7.995 17.9961C7.46427 17.9961 6.95525 17.7853 6.58 17.41C6.20475 17.0348 5.99389 16.5257 5.99389 15.995C5.99389 15.4643 6.20475 14.9553 6.58 14.58L15.07 6.09" stroke="#1a1a1a" stroke-width="1.5" stroke-linecap="round" stroke-linejoin="round"/>
</svg>
