<svg width="20" height="20" viewBox="0 0 20 20" fill="none" xmlns="http://www.w3.org/2000/svg">
<path d="M16.667 13.333C17.5875 12.8575 18.3333 12.0083 18.3333 11C18.3333 9.49167 17.175 8.33333 15.6667 8.33333C15.3417 8.33333 15.0333 8.39167 14.75 8.49167C14.1917 6.85 12.7083 5.66667 11 5.66667C8.99167 5.66667 7.33333 7.325 7.33333 9.33333C7.33333 9.50833 7.35 9.675 7.36667 9.85C6.30833 10.1917 5.5 11.15 5.5 12.3333C5.5 13.8083 6.69167 15 8.16667 15H16.667C17.8083 15 18.75 14.0583 18.75 12.9167C18.75 11.775 17.8083 10.8333 16.667 10.8333C16.667 10.8333 16.667 10.8333 16.667 10.8333V13.333Z" stroke="#1a1a1a" stroke-width="1.5" stroke-linecap="round" stroke-linejoin="round" fill="none"/>
<path d="M10 7.5V12.5M10 7.5L8.33333 9.16667M10 7.5L11.6667 9.16667" stroke="#1a1a1a" stroke-width="1.5" stroke-linecap="round" stroke-linejoin="round"/>
</svg>
