<svg width="24" height="24" viewBox="0 0 24 24" fill="none" xmlns="http://www.w3.org/2000/svg">
<path d="M4 19.5C4 18.6716 4.67157 18 5.5 18H18.5C19.3284 18 20 18.6716 20 19.5C20 20.3284 19.3284 21 18.5 21H5.5C4.67157 21 4 20.3284 4 19.5Z" fill="#666666"/>
<path d="M5 4.5C5 3.67157 5.67157 3 6.5 3H17.5C18.3284 3 19 3.67157 19 4.5V15.5C19 16.3284 18.3284 17 17.5 17H6.5C5.67157 17 5 16.3284 5 15.5V4.5Z" stroke="#666666" stroke-width="1.5"/>
<path d="M9 7H15M9 11H15M9 15H12" stroke="#666666" stroke-width="1.5" stroke-linecap="round"/>
</svg>
