<svg width="18" height="13" viewBox="0 0 18 13" fill="none" xmlns="http://www.w3.org/2000/svg">
<path d="M9 0C4.03 0 0 4.03 0 9C0 9.55 0.45 10 1 10C1.55 10 2 9.55 2 9C2 5.13 5.13 2 9 2C12.87 2 16 5.13 16 9C16 9.55 16.45 10 17 10C17.55 10 18 9.55 18 9C18 4.03 13.97 0 9 0ZM9 6C7.34 6 6 7.34 6 9C6 9.55 6.45 10 7 10C7.55 10 8 9.55 8 9C8 8.45 8.45 8 9 8C9.55 8 10 8.45 10 9C10 9.55 10.45 10 11 10C11.55 10 12 9.55 12 9C12 7.34 10.66 6 9 6ZM9 11C8.45 11 8 11.45 8 12C8 12.55 8.45 13 9 13C9.55 13 10 12.55 10 12C10 11.45 9.55 11 9 11Z" fill="#1a1a1a"/>
</svg>
