<svg width="23" height="23" viewBox="0 0 23 23" fill="none" xmlns="http://www.w3.org/2000/svg">
<path d="M8.625 11.5C9.76875 11.5 10.8656 11.0456 11.6744 10.2369C12.4831 9.42815 12.9375 8.33125 12.9375 7.1875C12.9375 6.04375 12.4831 4.94685 11.6744 4.1381C10.8656 3.32935 9.76875 2.875 8.625 2.875C7.48125 2.875 6.38435 3.32935 5.5756 4.1381C4.76685 4.94685 4.3125 6.04375 4.3125 7.1875C4.3125 8.33125 4.76685 9.42815 5.5756 10.2369C6.38435 11.0456 7.48125 11.5 8.625 11.5ZM11.5 7.1875C11.5 7.95 11.1971 8.68127 10.6579 9.22043C10.1188 9.7596 9.3875 10.0625 8.625 10.0625C7.8625 10.0625 7.13123 9.7596 6.59207 9.22043C6.0529 8.68127 5.75 7.95 5.75 7.1875C5.75 6.425 6.0529 5.69373 6.59207 5.15457C7.13123 4.6154 7.8625 4.3125 8.625 4.3125C9.3875 4.3125 10.1188 4.6154 10.6579 5.15457C11.1971 5.69373 11.5 6.425 11.5 7.1875ZM17.25 18.6875C17.25 20.125 15.8125 20.125 15.8125 20.125H1.4375C1.4375 20.125 0 20.125 0 18.6875C0 17.25 1.4375 12.9375 8.625 12.9375C15.8125 12.9375 17.25 17.25 17.25 18.6875ZM15.8125 18.6818C15.8111 18.3281 15.5911 17.2644 14.6165 16.2897C13.6793 15.3525 11.9154 14.375 8.625 14.375C5.33456 14.375 3.57075 15.3525 2.6335 16.2897C1.65888 17.2644 1.44038 18.3281 1.4375 18.6818H15.8125Z" fill="white"/>
<path fill-rule="evenodd" clip-rule="evenodd" d="M19.4062 7.1875C19.5969 7.1875 19.7797 7.26323 19.9145 7.39802C20.0493 7.53281 20.125 7.71563 20.125 7.90625V10.0625H22.2812C22.4719 10.0625 22.6547 10.1382 22.7895 10.273C22.9243 10.4078 23 10.5906 23 10.7812C23 10.9719 22.9243 11.1547 22.7895 11.2895C22.6547 11.4243 22.4719 11.5 22.2812 11.5H20.125V13.6562C20.125 13.8469 20.0493 14.0297 19.9145 14.1645C19.7797 14.2993 19.5969 14.375 19.4062 14.375C19.2156 14.375 19.0328 14.2993 18.898 14.1645C18.7632 14.0297 18.6875 13.8469 18.6875 13.6562V11.5H16.5312C16.3406 11.5 16.1578 11.4243 16.023 11.2895C15.8882 11.1547 15.8125 10.9719 15.8125 10.7812C15.8125 10.5906 15.8882 10.4078 16.023 10.273C16.1578 10.1382 16.3406 10.0625 16.5312 10.0625H18.6875V7.90625C18.6875 7.71563 18.7632 7.53281 18.898 7.39802C19.0328 7.26323 19.2156 7.1875 19.4062 7.1875Z" fill="white"/>
</svg>
