<svg width="26" height="26" viewBox="0 0 26 26" fill="none" xmlns="http://www.w3.org/2000/svg">
<g clip-path="url(#clip0_2394_3279)">
<path d="M9.07128 6.7981C9.18598 6.23324 9.60097 5.49686 10.4699 5.49686L15.499 5.4974C16.3701 5.49632 16.7846 6.23324 16.8982 6.7981C16.96 7.1042 16.9576 7.4198 16.8912 7.72493C16.8257 8.02089 16.6845 8.33632 16.4253 8.56952C16.2978 8.68018 16.1662 8.78612 16.0309 8.88712L15.9887 8.9185C15.8435 9.02724 15.7028 9.14167 15.5667 9.26153C15.2804 9.52069 15.2215 9.67165 15.2204 9.73766L15.2209 12.4327C15.2209 12.5192 15.2631 12.6696 15.407 12.8958C15.5461 13.1138 15.7485 13.3508 15.9876 13.5986C16.2175 13.8362 16.4648 14.0672 16.704 14.289L16.7299 14.3139C16.9669 14.5347 17.2088 14.7603 17.3808 14.9551C17.9035 15.5481 17.8797 16.3932 17.6421 17.0105C17.4041 17.6273 16.8414 18.2842 15.9936 18.2836L13.5588 18.2836L13.5588 22.7257C13.5615 22.8027 13.5487 22.8795 13.5211 22.9515C13.4935 23.0234 13.4517 23.0891 13.3982 23.1445C13.3446 23.2 13.2805 23.2441 13.2096 23.2742C13.1386 23.3043 13.0623 23.3198 12.9853 23.3198C12.9082 23.3198 12.8319 23.3043 12.761 23.2742C12.6901 23.2441 12.6259 23.2 12.5724 23.1445C12.5189 23.0891 12.4771 23.0234 12.4495 22.9515C12.4219 22.8795 12.409 22.8027 12.4118 22.7257L12.4112 18.2842L9.97646 18.2842C9.12863 18.2836 8.56593 17.6279 8.32841 17.0105C8.09034 16.3937 8.06708 15.5481 8.5892 14.9556C8.76179 14.7603 9.00365 14.5347 9.24063 14.3139L9.2666 14.289C9.5052 14.0666 9.75301 13.8362 9.98296 13.5986C10.2221 13.3508 10.4245 13.1139 10.5635 12.8958C10.7074 12.6696 10.7491 12.5187 10.7491 12.4321L10.7491 9.73766C10.7491 9.67165 10.6896 9.52015 10.4028 9.26153C10.2667 9.14167 10.1259 9.02724 9.98079 8.9185L9.93913 8.88658C9.80381 8.78558 9.67224 8.67964 9.5447 8.56898C9.28499 8.33632 9.14378 8.02089 9.07777 7.72547C9.01068 7.42464 9.01014 7.10055 9.07128 6.7981Z" fill="#272727"/>
</g>
<defs>
<clipPath id="clip0_2394_3279">
<rect width="18.3641" height="18.3641" fill="white" transform="translate(0 12.9863) rotate(-45)"/>
</clipPath>
</defs>
</svg>
