<svg width="19" height="19" viewBox="0 0 19 19" fill="none" xmlns="http://www.w3.org/2000/svg">
<path d="M8.09954 8.10132C7.81258 8.38838 7.65141 8.77768 7.65148 9.18357C7.65155 9.58946 7.81286 9.9787 8.09992 10.2657C8.38698 10.5526 8.77628 10.7138 9.18217 10.7137C9.58806 10.7136 9.9773 10.5523 10.2643 10.2653M12.7641 12.7583C11.6907 13.4299 10.4484 13.7821 9.18223 13.7738C6.42755 13.7738 4.13199 12.2434 2.29553 9.18262C3.26885 7.56042 4.37072 6.36826 5.60115 5.60613M7.78959 4.72922C8.24797 4.63643 8.71456 4.59028 9.18223 4.59149C11.9369 4.59149 14.2325 6.12187 16.0689 9.18262C15.5593 10.032 15.0137 10.7643 14.433 11.3787M2.29553 2.2959L16.0689 16.0693" stroke="#ACB5BB" stroke-width="1.49212" stroke-linecap="round" stroke-linejoin="round"/>
</svg>
