<svg preserveAspectRatio="none" width="100%" height="100%" overflow="visible" style="display: block;" viewBox="0 0 17.5853 17.5853" fill="none" xmlns="http://www.w3.org/2000/svg">
<g id="bi:fire" clip-path="url(#clip0_0_23)">
<path id="Vector" d="M8.79291 17.5855C12.4353 17.5855 15.3874 15.3873 15.3874 11.5405C15.3874 9.8919 14.8378 7.14421 12.6397 4.94605C12.9145 6.59467 11.2658 7.14421 11.2658 7.14421C12.0901 4.39651 9.89199 0.549737 6.59475 0.000198013C6.98712 2.19835 7.14429 4.39651 4.3966 6.59467C3.02275 7.69375 2.19844 9.59405 2.19844 11.5405C2.19844 15.3873 5.15056 17.5855 8.79291 17.5855ZM8.79291 16.4864C6.97174 16.4864 5.49568 15.3873 5.49568 13.4639C5.49568 12.6396 5.77044 11.2658 6.86952 10.1667C6.73214 10.991 7.69383 11.5405 7.69383 11.5405C7.28168 10.1667 8.24337 7.96852 9.89199 7.69375C9.69525 8.79282 9.61722 9.8919 10.9911 10.991C11.678 11.5405 12.0901 12.4901 12.0901 13.4639C12.0901 15.3873 10.6141 16.4864 8.79291 16.4864Z" fill="var(--fill-0, #FBB031)"/>
</g>
<defs>
<clipPath id="clip0_0_23">
<rect width="17.5853" height="17.5853" fill="white"/>
</clipPath>
</defs>
</svg>
