<svg preserveAspectRatio="none" width="100%" height="100%" overflow="visible" style="display: block;" viewBox="0 0 36.6334 36.6334" fill="none" xmlns="http://www.w3.org/2000/svg">
<g id="circle" filter="url(#filter0_d_0_6)">
<path id="Ellipse 1" d="M36.3167 18.3167C36.3167 28.2578 28.2578 36.3167 18.3167 36.3167C8.37559 36.3167 0.316712 28.2578 0.316712 18.3167C0.316712 8.37559 8.37559 0.316712 18.3167 0.316712C28.2578 0.316712 36.3167 8.37559 36.3167 18.3167ZM5.46471 18.3167C5.46471 25.4147 11.2187 31.1687 18.3167 31.1687C25.4147 31.1687 31.1687 25.4147 31.1687 18.3167C31.1687 11.2187 25.4147 5.46471 18.3167 5.46471C11.2187 5.46471 5.46471 11.2187 5.46471 18.3167Z" fill="var(--fill-0, #DCDCDC)"/>
<path id="Ellipse 2" d="M18.3167 2.89071C18.3167 1.46913 19.4749 0.297838 20.882 0.500439C23.2393 0.839864 25.5146 1.64507 27.5719 2.8784C30.3681 4.55468 32.6565 6.95889 34.1928 9.83432C35.7291 12.7098 36.4556 15.9485 36.2948 19.2046C36.134 22.4608 35.0919 25.6121 33.2797 28.3222C31.4675 31.0322 28.9534 33.1992 26.0057 34.5919C23.0579 35.9845 19.7873 36.5504 16.5431 36.2291C13.2988 35.9079 10.2027 34.7116 7.58536 32.7679C5.65961 31.3379 4.04622 29.5428 2.83195 27.494C2.10716 26.2711 2.74711 24.7532 4.06086 24.2101V24.2101C5.3746 23.667 6.86023 24.3121 7.65385 25.4915C8.46495 26.6969 9.47811 27.7613 10.6545 28.6349C12.5233 30.0226 14.7339 30.8768 17.0503 31.1062C19.3667 31.3355 21.7019 30.9315 23.8066 29.9372C25.9113 28.9428 27.7064 27.3956 29.0003 25.4606C30.2942 23.5256 31.0382 21.2756 31.1531 18.9507C31.2679 16.6258 30.7491 14.3133 29.6522 12.2603C28.5553 10.2072 26.9214 8.49062 24.9249 7.29376C23.6681 6.54033 22.2974 6.01067 20.8736 5.72162C19.4804 5.43879 18.3167 4.31229 18.3167 2.89071V2.89071Z" fill="var(--fill-0, #168AAD)"/>
</g>
<defs>
<filter id="filter0_d_0_6" x="0" y="0" width="36.6334" height="36.6334" filterUnits="userSpaceOnUse" color-interpolation-filters="sRGB">
<feFlood flood-opacity="0" result="BackgroundImageFix"/>
<feColorMatrix in="SourceAlpha" type="matrix" values="0 0 0 0 0 0 0 0 0 0 0 0 0 0 0 0 0 0 127 0" result="hardAlpha"/>
<feOffset/>
<feGaussianBlur stdDeviation="0.158356"/>
<feComposite in2="hardAlpha" operator="out"/>
<feColorMatrix type="matrix" values="0 0 0 0 0 0 0 0 0 0 0 0 0 0 0 0 0 0 0.18 0"/>
<feBlend mode="normal" in2="BackgroundImageFix" result="effect1_dropShadow_0_6"/>
<feBlend mode="normal" in="SourceGraphic" in2="effect1_dropShadow_0_6" result="shape"/>
</filter>
</defs>
</svg>
