<svg preserveAspectRatio="none" width="100%" height="100%" overflow="visible" style="display: block;" viewBox="0 0 17.59 17.59" fill="none" xmlns="http://www.w3.org/2000/svg">
<g id="fluent:weather-rain-showers-day-24-regular">
<path id="Vector" d="M9.52938 4.40483C11.852 4.40483 13.169 5.94176 13.3611 7.79823H13.4197C13.7746 7.79775 14.1261 7.86717 14.4541 8.00253C14.7821 8.13788 15.0803 8.33653 15.3316 8.58712C15.5828 8.8377 15.7823 9.13533 15.9185 9.463C16.0548 9.79067 16.1252 10.142 16.1256 10.4968C16.1252 10.8518 16.0549 11.2031 15.9187 11.5309C15.7825 11.8586 15.5831 12.1564 15.3318 12.407C15.0805 12.6577 14.7824 12.8564 14.4543 12.9918C14.1262 13.1272 13.7746 13.1966 13.4197 13.1962L12.966 13.1947L11.83 15.1186C11.761 15.2406 11.6481 15.3316 11.5143 15.3731C11.3804 15.4145 11.2358 15.4033 11.11 15.3418C10.9841 15.2802 10.8865 15.1729 10.8371 15.0418C10.7877 14.9107 10.7903 14.7656 10.8442 14.6363L10.8772 14.5689L11.6966 13.1947H10.1311L8.99435 15.1186C8.92466 15.2391 8.81182 15.3287 8.67864 15.3693C8.54545 15.4098 8.40184 15.3983 8.2768 15.3371C8.15175 15.2759 8.0546 15.1695 8.00495 15.0394C7.9553 14.9094 7.95686 14.7653 8.00931 14.6363L8.04229 14.5689L8.86169 13.1947H7.29619L6.15943 15.1186C6.08974 15.2391 5.9769 15.3287 5.84372 15.3693C5.71053 15.4098 5.56692 15.3983 5.44187 15.3371C5.31683 15.2759 5.21968 15.1695 5.17003 15.0394C5.12038 14.9094 5.12194 14.7653 5.17439 14.6363L5.20737 14.5689L6.02604 13.1947L5.63979 13.1962C5.28493 13.1966 4.93344 13.1272 4.6054 12.9919C4.27736 12.8565 3.9792 12.6579 3.72793 12.4073C3.47666 12.1567 3.27721 11.8591 3.14096 11.5314C3.00472 11.2037 2.93435 10.8524 2.93387 10.4976C2.93425 10.1426 3.00455 9.79126 3.14075 9.46351C3.27696 9.13575 3.47639 8.83804 3.72767 8.58737C3.97895 8.33671 4.27715 8.138 4.60523 8.0026C4.93332 7.8672 5.28487 7.79775 5.63979 7.79823H5.69843C5.89118 5.9293 7.2075 4.40483 9.52938 4.40483ZM9.52938 5.50201C8.01151 5.50201 6.6886 6.69959 6.6886 8.35305C6.6886 8.6147 6.45406 8.82065 6.18655 8.82065H5.68084C4.75663 8.82065 4.00759 9.55357 4.00759 10.4595C4.00759 11.3646 4.75663 12.0983 5.68084 12.0983H13.3787C14.3021 12.0983 15.0519 11.3653 15.0519 10.4595C15.0519 9.5543 14.3029 8.82065 13.3787 8.82065H12.8729C12.6047 8.82065 12.3709 8.61544 12.3709 8.35305C12.3709 6.67834 11.048 5.50201 9.52938 5.50201ZM3.20138 7.4501C3.25228 7.57293 3.25694 7.71004 3.21449 7.83604C3.17204 7.96204 3.08536 8.06839 2.97051 8.13537L2.90382 8.16836L2.22514 8.4498C2.0965 8.50294 1.95249 8.50531 1.82218 8.45642C1.69187 8.40754 1.58495 8.31104 1.523 8.18641C1.46106 8.06177 1.4487 7.91828 1.48842 7.78489C1.52814 7.6515 1.61698 7.53814 1.73701 7.46769L1.80444 7.43397L2.48312 7.15253C2.54982 7.1249 2.62131 7.11068 2.69351 7.11068C2.7657 7.11068 2.83719 7.12491 2.90389 7.15254C2.97059 7.18017 3.03119 7.22067 3.08223 7.27173C3.13328 7.32278 3.17376 7.38339 3.20138 7.4501ZM7.95581 3.90791L7.82975 3.95042C7.44848 4.08382 7.08817 4.27089 6.75969 4.50597C6.40681 4.39135 6.02703 4.38923 5.67289 4.4999C5.31875 4.61058 5.00776 4.82858 4.78294 5.12374C4.55813 5.4189 4.4306 5.77664 4.41801 6.14746C4.40542 6.51828 4.50838 6.88384 4.71265 7.19358C4.35539 7.29378 4.01713 7.45226 3.71149 7.66264C3.37557 7.08527 3.2501 6.40934 3.35642 5.74987C3.46273 5.09041 3.79428 4.48816 4.29463 4.04561C4.79498 3.60306 5.43322 3.34756 6.10073 3.32259C6.76825 3.29762 7.42379 3.50472 7.95581 3.90864M2.15551 3.93136L2.2332 3.95702L2.91188 4.23846C3.0395 4.29195 3.14224 4.39161 3.19961 4.51754C3.25697 4.64347 3.26472 4.7864 3.22133 4.9178C3.17793 5.04919 3.08657 5.15939 2.96549 5.22638C2.84441 5.29337 2.70252 5.31223 2.56814 5.2792L2.49192 5.25355L1.81324 4.97211C1.68596 4.91845 1.58354 4.81885 1.52637 4.69311C1.4692 4.56737 1.46146 4.42471 1.50469 4.29352C1.54793 4.16234 1.63897 4.05224 1.7597 3.98513C1.88043 3.91802 2.02127 3.89883 2.15551 3.93136ZM4.95232 1.74288L4.98603 1.80957L5.26674 2.48825C5.31988 2.61689 5.32225 2.76089 5.27337 2.89121C5.22448 3.02152 5.12799 3.12844 5.00335 3.19038C4.87872 3.25233 4.73522 3.26469 4.60183 3.22497C4.46844 3.18525 4.35508 3.09641 4.28463 2.97637L4.25092 2.90821L3.96948 2.22953C3.91709 2.10101 3.91526 1.95743 3.96436 1.82762C4.01345 1.6978 4.10983 1.59137 4.23415 1.52967C4.35847 1.46797 4.50152 1.45559 4.6346 1.495C4.76767 1.53441 4.88091 1.6227 4.95158 1.74214M8.1427 1.50834C8.26439 1.55885 8.36389 1.65138 8.42308 1.76909C8.48227 1.88679 8.49721 2.02184 8.46519 2.14964L8.44027 2.2266L8.15883 2.90528C8.10517 3.03256 8.00557 3.13498 7.87983 3.19215C7.75409 3.24932 7.61143 3.25706 7.48025 3.21382C7.34906 3.17059 7.23896 3.07955 7.17185 2.95882C7.10474 2.83809 7.08555 2.69652 7.11809 2.56228L7.14301 2.48459L7.42445 1.80591C7.45206 1.7392 7.49255 1.67859 7.54359 1.62753C7.59464 1.57648 7.65524 1.53598 7.72194 1.50835C7.78864 1.48071 7.86012 1.46649 7.93232 1.46649C8.00452 1.46649 8.076 1.48071 8.1427 1.50834Z" fill="var(--fill-0, #00897C)"/>
</g>
</svg>
