<svg preserveAspectRatio="none" width="100%" height="100%" overflow="visible" style="display: block;" viewBox="0 0 24.3799 19.7146" fill="none" xmlns="http://www.w3.org/2000/svg">
<g id="Frame 1341">
<path id="Union" d="M20.3271 11.4336C20.3349 11.7794 20.3926 12.074 20.4375 12.2861C20.4915 12.5408 20.5633 12.703 20.6367 12.8164C20.7101 12.9296 20.7855 12.9956 20.8516 13.0586C21.1875 13.3788 21.6614 13.6401 22.165 13.8486C22.6684 14.0571 23.201 14.2121 23.6533 14.3203H24.377L24.3799 14.3574C24.2931 14.3719 24.1949 14.3916 24.0869 14.4141C24.1944 14.4357 24.2923 14.4563 24.3789 14.4707L24.376 14.5078H23.6719L23.3164 14.6006C22.9495 14.7032 22.5517 14.8342 22.1709 14.9922C21.663 15.2029 21.1864 15.462 20.8535 15.7695L20.8516 15.7725L20.8506 15.7715C20.6569 15.8972 20.1627 16.4112 19.7646 17.4521C19.7189 17.5813 19.6481 17.786 19.585 17.9814C19.5217 18.1775 19.4665 18.3629 19.4502 18.4531V18.4551L19.2158 19.3691L19.1748 19.5664L19.1426 19.5625L19.1104 19.5664L19.0693 19.3691L18.835 18.4551V18.4531C18.8187 18.3629 18.7635 18.1775 18.7002 17.9814C18.6371 17.786 18.5662 17.5813 18.5205 17.4521L18.3672 17.0859C18.0031 16.2884 17.6029 15.8812 17.4336 15.7715L17.4316 15.7695C17.0988 15.462 16.6222 15.2029 16.1143 14.9922C15.7335 14.8342 15.3357 14.7032 14.9688 14.6006L14.6133 14.5078H13.9053L13.9023 14.4707C13.9892 14.4562 14.0873 14.435 14.1953 14.4131C14.0886 14.391 13.9912 14.3718 13.9053 14.3574L13.9082 14.3203H14.6279C15.0802 14.2121 15.6129 14.0571 16.1162 13.8486C16.6198 13.6401 17.0937 13.3788 17.4297 13.0586C17.4957 12.9956 17.5711 12.9296 17.6445 12.8164C17.718 12.703 17.7898 12.5408 17.8438 12.2861C17.8798 12.1158 17.9248 11.8923 17.9453 11.6318L17.957 11.3594V10.2471H17.958V5.58984L5.87305 17.2861H11.9922L9.63184 19.6553H0.0175781L2.12109 17.6191L18.3184 1.94336L20.3271 0V11.4336Z" fill="var(--fill-0, black)"/>
</g>
</svg>
