<svg preserveAspectRatio="none" width="100%" height="100%" overflow="visible" style="display: block;" viewBox="0 0 15.8583 14.3925" fill="none" xmlns="http://www.w3.org/2000/svg">
<g id="Group">
<path id="Vector" d="M1.33292 4.26458H6.09687C6.45927 4.26458 6.81352 4.15712 7.11484 3.95579C7.41616 3.75445 7.65101 3.46829 7.78969 3.13348C7.92837 2.79867 7.96466 2.43026 7.89396 2.07483C7.82326 1.7194 7.64875 1.39292 7.3925 1.13667C7.13625 0.880416 6.80977 0.705907 6.45434 0.635208C6.09891 0.564509 5.73049 0.600794 5.39569 0.739476C5.06088 0.878158 4.77472 1.11301 4.57338 1.41433C4.37205 1.71564 4.26458 2.0699 4.26458 2.43229V2.69394M2.06583 8.66208H12.6931C13.2005 8.66208 13.6964 8.81253 14.1183 9.0944C14.5401 9.37627 14.8689 9.7769 15.0631 10.2456C15.2572 10.7144 15.308 11.2301 15.209 11.7277C15.1101 12.2253 14.8658 12.6824 14.507 13.0412C14.1483 13.3999 13.6912 13.6442 13.1936 13.7432C12.696 13.8422 12.1802 13.7914 11.7115 13.5972C11.2427 13.4031 10.8421 13.0743 10.5602 12.6524C10.2784 12.2306 10.1279 11.7346 10.1279 11.2273V10.8608" stroke="var(--stroke-0, #493FE4)" stroke-width="1.2" stroke-linecap="round"/>
<path id="Vector_2" d="M0.6 6.46333H12.6931C13.2005 6.46333 13.6964 6.31289 14.1183 6.03102C14.5401 5.74915 14.8689 5.34852 15.0631 4.87979C15.2572 4.41106 15.308 3.89528 15.209 3.39768C15.1101 2.90008 14.8658 2.443 14.507 2.08425C14.1483 1.7255 13.6912 1.48119 13.1936 1.38221C12.696 1.28323 12.1802 1.33403 11.7115 1.52818C11.2427 1.72234 10.8421 2.05113 10.5602 2.47297C10.2784 2.89482 10.1279 3.39078 10.1279 3.89813V4.26458" stroke="var(--stroke-0, #493FE4)" stroke-width="1.2" stroke-linecap="round"/>
</g>
</svg>
