<svg preserveAspectRatio="none" width="100%" height="100%" overflow="visible" style="display: block;" viewBox="0 0 26 26" fill="none" xmlns="http://www.w3.org/2000/svg">
<g id="material-symbols-light:notifications-unread-outline-rounded">
<path id="Vector" d="M12.997 23.1671C12.5146 23.1671 12.1029 22.9956 11.762 22.6525C11.4211 22.3102 11.2507 21.8985 11.2507 21.4175H14.7499C14.7499 21.9014 14.5783 22.3141 14.2353 22.6558C13.8915 22.9966 13.4787 23.1671 12.997 23.1671ZM5.95861 20.3331C5.80477 20.3331 5.67622 20.2811 5.57294 20.1771C5.46966 20.0731 5.41766 19.9442 5.41694 19.7903C5.41622 19.6365 5.46822 19.5079 5.57294 19.4047C5.67766 19.3014 5.80622 19.2497 5.95861 19.2497H7.16761V10.6665C7.16761 9.25094 7.61538 8.00619 8.51094 6.93225C9.40649 5.85831 10.5418 5.18917 11.9169 4.92483V4.33333C11.9169 4.03217 12.022 3.7765 12.2322 3.56633C12.4424 3.35544 12.6977 3.25 12.9981 3.25C13.2985 3.25 13.5546 3.35544 13.7662 3.56633C13.9778 3.77722 14.0836 4.03289 14.0836 4.33333V4.41458C13.9269 4.65942 13.7897 4.90606 13.6719 5.1545C13.5542 5.40294 13.4621 5.66728 13.3957 5.9475L13.2029 5.92583C13.14 5.92006 13.0725 5.91717 13.0003 5.91717C11.6837 5.91717 10.5628 6.37939 9.63761 7.30383C8.71244 8.22828 8.25022 9.34917 8.25094 10.6665V19.2497H17.7507V12.6653C17.9226 12.6978 18.0999 12.7234 18.2826 12.7422C18.4653 12.7609 18.6488 12.7635 18.8329 12.7498V19.2497H20.0419C20.1958 19.2497 20.3243 19.3018 20.4276 19.4058C20.5316 19.5098 20.5836 19.6387 20.5836 19.7925C20.5836 19.9463 20.5316 20.0749 20.4276 20.1782C20.3236 20.2814 20.195 20.3331 20.0419 20.3331H5.95861ZM18.3779 10.1877C17.6261 10.1877 16.9862 9.92442 16.4583 9.39792C15.9303 8.87142 15.6667 8.23261 15.6674 7.4815C15.6682 6.73039 15.931 6.0905 16.4561 5.56183C16.9812 5.03317 17.6203 4.76956 18.3736 4.771C19.1269 4.77244 19.766 5.03533 20.2911 5.55967C20.8162 6.084 21.0805 6.72317 21.0841 7.47717C21.0877 8.23117 20.8245 8.87069 20.2944 9.39575C19.7642 9.92081 19.1251 10.1844 18.3769 10.1866" fill="var(--fill-0, black)"/>
</g>
</svg>
