<svg preserveAspectRatio="none" width="100%" height="100%" overflow="visible" style="display: block;" viewBox="0 0 17.5853 17.5853" fill="none" xmlns="http://www.w3.org/2000/svg">
<g id="Group">
<g id="Vector">
</g>
<path id="Vector_2" d="M12.4566 4.39631C12.2623 4.39631 12.0759 4.47351 11.9385 4.61092C11.8011 4.74833 11.7239 4.9347 11.7239 5.12903C11.7239 5.32336 11.8011 5.50973 11.9385 5.64714C12.0759 5.78455 12.2623 5.86175 12.4566 5.86175H13.6187L10.2585 9.222L7.47928 6.4428C7.34187 6.30543 7.15554 6.22827 6.96125 6.22827C6.76696 6.22827 6.58062 6.30543 6.44321 6.4428L1.68054 11.2055C1.61056 11.2731 1.55474 11.3539 1.51634 11.4433C1.47794 11.5327 1.45772 11.6288 1.45688 11.7261C1.45603 11.8234 1.47457 11.9199 1.51141 12.01C1.54826 12.1 1.60266 12.1818 1.67146 12.2506C1.74026 12.3194 1.82207 12.3738 1.91211 12.4107C2.00216 12.4475 2.09865 12.466 2.19594 12.4652C2.29323 12.4644 2.38937 12.4441 2.47877 12.4057C2.56816 12.3673 2.64902 12.3115 2.71661 12.2415L6.96125 7.99689L9.74045 10.7761C9.87785 10.9135 10.0642 10.9906 10.2585 10.9906C10.4528 10.9906 10.6391 10.9135 10.7765 10.7761L14.6548 6.89782V8.05991C14.6548 8.25424 14.732 8.44061 14.8694 8.57802C15.0068 8.71543 15.1932 8.79263 15.3875 8.79263C15.5818 8.79263 15.7682 8.71543 15.9056 8.57802C16.043 8.44061 16.1202 8.25424 16.1202 8.05991V5.12903C16.1202 4.9347 16.043 4.74833 15.9056 4.61092C15.7682 4.47351 15.5818 4.39631 15.3875 4.39631H12.4566Z" fill="var(--fill-0, #A84CF7)"/>
</g>
</svg>
