<svg preserveAspectRatio="none" width="100%" height="100%" overflow="visible" style="display: block;" viewBox="0 0 16 16" fill="none" xmlns="http://www.w3.org/2000/svg">
<g id="proicons:airplane">
<path id="Vector" d="M6.8258 3.00798C6.8258 2.69644 6.94956 2.39766 7.16985 2.17736C7.39015 1.95707 7.68893 1.83331 8.00047 1.83331C8.31201 1.83331 8.61079 1.95707 8.83108 2.17736C9.05138 2.39766 9.17514 2.69644 9.17514 3.00798V5.93331L13.6638 8.28998C13.7714 8.34648 13.8615 8.43131 13.9243 8.5353C13.9872 8.63928 14.0204 8.75847 14.0205 8.87998V9.16731C14.0205 9.2262 14.0076 9.28437 13.9825 9.33768C13.9575 9.39098 13.921 9.4381 13.8757 9.47567C13.8303 9.51325 13.7773 9.54034 13.7202 9.55503C13.6632 9.56972 13.6037 9.57164 13.5458 9.56065L9.17514 8.73398V11.472C9.17502 11.5445 9.19463 11.6157 9.23185 11.6779C9.26908 11.7402 9.32252 11.7911 9.38647 11.8253L10.6278 12.4893C10.7873 12.5747 10.9207 12.7018 11.0136 12.857C11.1066 13.0122 11.1558 13.1897 11.1558 13.3706V13.6686C11.1558 13.7285 11.1424 13.7877 11.1165 13.8417C11.0906 13.8957 11.0529 13.9432 11.0062 13.9807C10.9595 14.0182 10.9049 14.0448 10.8466 14.0584C10.7883 14.072 10.7276 14.0723 10.6691 14.0593L8.00047 13.4693L5.3318 14.0593C5.27332 14.0723 5.21267 14.072 5.15433 14.0584C5.09599 14.0448 5.04145 14.0182 4.99474 13.9807C4.94802 13.9432 4.91033 13.8957 4.88443 13.8417C4.85854 13.7877 4.84511 13.7285 4.84514 13.6686V13.3706C4.84518 13.1897 4.89432 13.0122 4.9873 12.857C5.08028 12.7018 5.21363 12.5747 5.37314 12.4893L6.61447 11.8246C6.67832 11.7905 6.7317 11.7397 6.76891 11.6775C6.80613 11.6154 6.82579 11.5444 6.8258 11.472V8.73465L2.45514 9.55998C2.39728 9.57097 2.33772 9.56905 2.28069 9.55437C2.22367 9.53968 2.17059 9.51258 2.12525 9.47501C2.0799 9.43743 2.04342 9.39031 2.01839 9.33701C1.99336 9.28371 1.98042 9.22553 1.98047 9.16665V8.87998C1.98039 8.75836 2.01357 8.63903 2.07644 8.53491C2.13931 8.4308 2.22946 8.34587 2.33714 8.28931L6.8258 5.93331V3.00798Z" stroke="var(--stroke-0, #4E4E4E)" stroke-linecap="round" stroke-linejoin="round"/>
</g>
</svg>
