<svg preserveAspectRatio="none" width="100%" height="100%" overflow="visible" style="display: block;" viewBox="0 0 10 10" fill="none" xmlns="http://www.w3.org/2000/svg">
<g id="eva:loader-outline" clip-path="url(#clip0_0_36)">
<path id="Vector" d="M5 0.833333C4.88949 0.833333 4.78351 0.877232 4.70537 0.955372C4.62723 1.03351 4.58333 1.13949 4.58333 1.25V2.08333C4.58333 2.19384 4.62723 2.29982 4.70537 2.37796C4.78351 2.4561 4.88949 2.5 5 2.5C5.11051 2.5 5.21649 2.4561 5.29463 2.37796C5.37277 2.29982 5.41667 2.19384 5.41667 2.08333V1.25C5.41667 1.13949 5.37277 1.03351 5.29463 0.955372C5.21649 0.877232 5.11051 0.833333 5 0.833333ZM8.75 4.58333H7.91667C7.80616 4.58333 7.70018 4.62723 7.62204 4.70537C7.5439 4.78351 7.5 4.88949 7.5 5C7.5 5.11051 7.5439 5.21649 7.62204 5.29463C7.70018 5.37277 7.80616 5.41667 7.91667 5.41667H8.75C8.86051 5.41667 8.96649 5.37277 9.04463 5.29463C9.12277 5.21649 9.16667 5.11051 9.16667 5C9.16667 4.88949 9.12277 4.78351 9.04463 4.70537C8.96649 4.62723 8.86051 4.58333 8.75 4.58333ZM2.5 5C2.5 4.88949 2.4561 4.78351 2.37796 4.70537C2.29982 4.62723 2.19384 4.58333 2.08333 4.58333H1.25C1.13949 4.58333 1.03351 4.62723 0.955372 4.70537C0.877232 4.78351 0.833333 4.88949 0.833333 5C0.833333 5.11051 0.877232 5.21649 0.955372 5.29463C1.03351 5.37277 1.13949 5.41667 1.25 5.41667H2.08333C2.19384 5.41667 2.29982 5.37277 2.37796 5.29463C2.4561 5.21649 2.5 5.11051 2.5 5ZM2.59167 2.08333C2.51044 2.00653 2.40204 1.96514 2.2903 1.96827C2.17856 1.97139 2.07264 2.01878 1.99583 2.1C1.91903 2.18122 1.87764 2.28963 1.88077 2.40137C1.88389 2.51311 1.93128 2.61903 2.0125 2.69583L2.6125 3.275C2.65276 3.31388 2.70045 3.34425 2.75271 3.36429C2.80497 3.38434 2.86073 3.39365 2.91667 3.39167C2.97279 3.39145 3.0283 3.3799 3.07985 3.3577C3.1314 3.33551 3.17794 3.30313 3.21667 3.2625C3.29427 3.18443 3.33783 3.07883 3.33783 2.96875C3.33783 2.85867 3.29427 2.75307 3.21667 2.675L2.59167 2.08333ZM7.08333 3.39167C7.19061 3.39124 7.29359 3.34945 7.37083 3.275L7.97083 2.69583C8.04403 2.61935 8.08537 2.51788 8.08646 2.41203C8.08755 2.30617 8.04831 2.20387 7.9767 2.1259C7.9051 2.04793 7.8065 2.00014 7.70093 1.99224C7.59537 1.98433 7.49075 2.0169 7.40833 2.08333L6.80833 2.675C6.73073 2.75307 6.68717 2.85867 6.68717 2.96875C6.68717 3.07883 6.73073 3.18443 6.80833 3.2625C6.88048 3.33863 6.97868 3.38476 7.08333 3.39167ZM5 7.5C4.88949 7.5 4.78351 7.5439 4.70537 7.62204C4.62723 7.70018 4.58333 7.80616 4.58333 7.91667V8.75C4.58333 8.86051 4.62723 8.96649 4.70537 9.04463C4.78351 9.12277 4.88949 9.16667 5 9.16667C5.11051 9.16667 5.21649 9.12277 5.29463 9.04463C5.37277 8.96649 5.41667 8.86051 5.41667 8.75V7.91667C5.41667 7.80616 5.37277 7.70018 5.29463 7.62204C5.21649 7.5439 5.11051 7.5 5 7.5ZM7.3875 6.725C7.30794 6.6482 7.20112 6.60615 7.09055 6.6081C6.97998 6.61006 6.87472 6.65585 6.79792 6.73542C6.72111 6.81498 6.67907 6.9218 6.68102 7.03237C6.68297 7.14293 6.72877 7.2482 6.80833 7.325L7.40833 7.91667C7.48557 7.99112 7.58855 8.03291 7.69583 8.03333C7.75166 8.03366 7.80699 8.02276 7.85852 8.00129C7.91006 7.97982 7.95675 7.9482 7.99583 7.90833C8.03489 7.8696 8.06588 7.82352 8.08704 7.77274C8.10819 7.72197 8.11908 7.66751 8.11908 7.6125C8.11908 7.5575 8.10819 7.50303 8.08704 7.45226C8.06588 7.40149 8.03489 7.3554 7.99583 7.31667L7.3875 6.725ZM2.6125 6.725L2.0125 7.30417C1.97345 7.3429 1.94245 7.38899 1.9213 7.43976C1.90014 7.49053 1.88925 7.545 1.88925 7.6C1.88925 7.65501 1.90014 7.70947 1.9213 7.76024C1.94245 7.81102 1.97345 7.8571 2.0125 7.89583C2.05158 7.93571 2.09827 7.96732 2.14981 7.98879C2.20135 8.01026 2.25667 8.02116 2.3125 8.02083C2.41521 8.02171 2.51463 7.98461 2.59167 7.91667L3.19167 7.3375C3.27123 7.2607 3.31703 7.15543 3.31898 7.04487C3.32094 6.9343 3.27889 6.82748 3.20208 6.74792C3.12528 6.66835 3.02002 6.62256 2.90945 6.6206C2.79888 6.61865 2.69206 6.6607 2.6125 6.7375V6.725Z" fill="var(--fill-0, #7C5B00)"/>
</g>
<defs>
<clipPath id="clip0_0_36">
<rect width="10" height="10" fill="white"/>
</clipPath>
</defs>
</svg>
