<svg preserveAspectRatio="none" width="100%" height="100%" overflow="visible" style="display: block;" viewBox="0 0 16.4993 21.5" fill="none" xmlns="http://www.w3.org/2000/svg">
<g id="Group">
<path id="Vector" d="M8.25023 0.75C6.70871 0.749954 5.20462 1.22491 3.94268 2.11021C2.68073 2.99552 1.72224 4.24818 1.19765 5.69769C0.673056 7.1472 0.607854 8.72315 1.01092 10.211C1.41398 11.6989 2.26573 13.0265 3.45023 14.013C4.44023 14.839 5.25023 15.96 5.25023 17.25H11.2502C11.2502 15.96 12.0602 14.839 13.0502 14.012C14.2343 13.0254 15.0857 11.6979 15.4886 10.2102C15.8914 8.72249 15.8261 7.14679 15.3015 5.69752C14.777 4.24824 13.8187 2.99577 12.557 2.11051C11.2953 1.22525 9.79151 0.7502 8.25023 0.75Z" stroke="var(--stroke-0, #0D9488)" stroke-width="1.5"/>
<path id="Vector_2" d="M11.2502 17.25H5.25023V19.25C5.25023 19.6478 5.40826 20.0294 5.68957 20.3107C5.97087 20.592 6.3524 20.75 6.75023 20.75H9.75023C10.1481 20.75 10.5296 20.592 10.8109 20.3107C11.0922 20.0294 11.2502 19.6478 11.2502 19.25V17.25Z" stroke="var(--stroke-0, #0D9488)" stroke-width="1.5" stroke-linejoin="round"/>
<path id="Vector_3" d="M6.25023 6.75C6.25023 5.737 7.14523 4.75 8.25023 4.75C9.35523 4.75 10.2502 5.57 10.2502 6.583C10.2502 6.948 10.1342 7.288 9.93323 7.574C9.33523 8.426 8.25023 9.238 8.25023 10.25" stroke="var(--stroke-0, #0D9488)" stroke-width="1.5" stroke-linecap="round"/>
<path id="Vector_4" d="M8.24223 12.75H8.25123" stroke="var(--stroke-0, #0D9488)" stroke-width="2" stroke-linecap="round" stroke-linejoin="round"/>
</g>
</svg>
