<svg preserveAspectRatio="none" width="100%" height="100%" overflow="visible" style="display: block;" viewBox="0 0 10 10" fill="none" xmlns="http://www.w3.org/2000/svg">
<g id="material-symbols:refresh-rounded">
<path id="Vector" d="M5 8.33333C4.06944 8.33333 3.28125 8.01042 2.63542 7.36458C1.98958 6.71875 1.66667 5.93056 1.66667 5C1.66667 4.06944 1.98958 3.28125 2.63542 2.63542C3.28125 1.98958 4.06944 1.66667 5 1.66667C5.47917 1.66667 5.9375 1.76556 6.375 1.96333C6.8125 2.16111 7.1875 2.44417 7.5 2.8125V2.08333C7.5 1.96528 7.54 1.86639 7.62 1.78667C7.7 1.70694 7.79889 1.66694 7.91667 1.66667C8.03444 1.66639 8.13347 1.70639 8.21375 1.78667C8.29403 1.86694 8.33389 1.96583 8.33333 2.08333V4.16667C8.33333 4.28472 8.29333 4.38375 8.21333 4.46375C8.13333 4.54375 8.03444 4.58361 7.91667 4.58333H5.83333C5.71528 4.58333 5.61639 4.54333 5.53667 4.46333C5.45694 4.38333 5.41694 4.28444 5.41667 4.16667C5.41639 4.04889 5.45639 3.95 5.53667 3.87C5.61694 3.79 5.71583 3.75 5.83333 3.75H7.16667C6.94444 3.36111 6.64069 3.05556 6.25542 2.83333C5.87014 2.61111 5.45167 2.5 5 2.5C4.30556 2.5 3.71528 2.74306 3.22917 3.22917C2.74306 3.71528 2.5 4.30556 2.5 5C2.5 5.69445 2.74306 6.28472 3.22917 6.77083C3.71528 7.25695 4.30556 7.5 5 7.5C5.47222 7.5 5.90458 7.38028 6.29708 7.14083C6.68958 6.90139 6.99333 6.58014 7.20833 6.17708C7.26389 6.07986 7.34208 6.01222 7.44292 5.97417C7.54375 5.93611 7.64611 5.93431 7.75 5.96875C7.86111 6.00347 7.94097 6.07639 7.98958 6.1875C8.03819 6.29861 8.03472 6.40278 7.97917 6.5C7.69444 7.05556 7.28819 7.5 6.76042 7.83333C6.23264 8.16667 5.64583 8.33333 5 8.33333Z" fill="var(--fill-0, #7C4400)"/>
</g>
</svg>
