<svg preserveAspectRatio="none" width="100%" height="100%" overflow="visible" style="display: block;" viewBox="0 0 10 10" fill="none" xmlns="http://www.w3.org/2000/svg">
<g id="prime:thumbs-up">
<path id="Vector" d="M8.425 3.97917C8.24583 3.76667 7.9875 3.64583 7.70833 3.64583H6.02917V2.5C6.02917 1.86667 5.51667 1.35417 4.85 1.35417C4.55833 1.35417 4.29583 1.52917 4.17917 1.8L3.12083 4.27083H2.34167C1.79583 4.27083 1.35417 4.7125 1.35417 5.25833V7.6625C1.35417 8.20417 1.8 8.64583 2.34167 8.64583H7.15833C7.6125 8.64583 8 8.32083 8.07917 7.87083L8.62917 4.74583C8.675 4.47083 8.6 4.19167 8.42083 3.97917H8.425ZM2.34167 8.02083C2.14167 8.02083 1.97917 7.85833 1.97917 7.6625V5.25833C1.97917 5.05833 2.14167 4.89583 2.34167 4.89583H3.0125V8.02083H2.34167ZM7.46667 7.7625C7.44167 7.9125 7.3125 8.02083 7.15833 8.02083H3.64167V4.64583L4.75417 2.04167C4.77083 2.00417 4.80833 1.975 4.8875 1.975C5.175 1.975 5.40417 2.20833 5.40417 2.49583V4.26667H7.70833C7.80417 4.26667 7.8875 4.30417 7.94583 4.375C8.00417 4.44583 8.02917 4.5375 8.0125 4.63333L7.4625 7.75833L7.46667 7.7625Z" fill="var(--fill-0, #037293)"/>
</g>
</svg>
