<svg preserveAspectRatio="none" width="100%" height="100%" overflow="visible" style="display: block;" viewBox="0 0 10 10" fill="none" xmlns="http://www.w3.org/2000/svg">
<g id="prime:star">
<path id="Vector" d="M7.16667 8.64583C7.11568 8.64575 7.06553 8.63286 7.02083 8.60833L5 7.54583L2.97917 8.60833C2.92782 8.6359 2.86978 8.64856 2.81161 8.64488C2.75344 8.6412 2.69747 8.62132 2.65 8.5875C2.60261 8.55276 2.56582 8.50553 2.54374 8.45107C2.52167 8.39662 2.51518 8.3371 2.525 8.27917L2.91667 6.02917L1.275 4.4375C1.23386 4.39632 1.20503 4.34446 1.19178 4.28777C1.17853 4.23108 1.18138 4.17182 1.2 4.11667C1.21744 4.06131 1.25016 4.01199 1.29439 3.9744C1.33861 3.93681 1.39255 3.91246 1.45 3.90417L3.70833 3.575L4.72083 1.52917C4.74965 1.48082 4.79053 1.44079 4.83946 1.41299C4.8884 1.38519 4.94372 1.37057 5 1.37057C5.05628 1.37057 5.1116 1.38519 5.16054 1.41299C5.20947 1.44079 5.25035 1.48082 5.27917 1.52917L6.29167 3.575L8.55 3.90417C8.60745 3.91246 8.66139 3.93681 8.70561 3.9744C8.74984 4.01199 8.78256 4.06131 8.8 4.11667C8.81862 4.17182 8.82147 4.23108 8.80822 4.28777C8.79497 4.34446 8.76614 4.39632 8.725 4.4375L7.08333 6.02917L7.47083 8.27917C7.48066 8.3371 7.47416 8.39662 7.45209 8.45107C7.43001 8.50553 7.39322 8.55276 7.34583 8.5875C7.29296 8.62377 7.23076 8.64402 7.16667 8.64583ZM5 6.88333C5.05043 6.88394 5.10015 6.8953 5.14583 6.91667L6.75 7.75L6.44583 5.9625C6.43758 5.91237 6.4412 5.861 6.4564 5.81251C6.47159 5.76403 6.49794 5.71979 6.53333 5.68333L7.83333 4.43333L6.0375 4.16667C5.98784 4.15876 5.94077 4.13915 5.90019 4.10944C5.85962 4.07973 5.8267 4.04079 5.80417 3.99583L5 2.37083L4.19583 4C4.1733 4.04496 4.14038 4.0839 4.09981 4.11361C4.05923 4.14331 4.01216 4.16293 3.9625 4.17083L2.16667 4.43333L3.46667 5.68333C3.50206 5.71979 3.52841 5.76403 3.5436 5.81251C3.5588 5.861 3.56242 5.91237 3.55417 5.9625L3.25 7.7625L4.85417 6.92917C4.89886 6.90346 4.94863 6.88781 5 6.88333Z" fill="var(--fill-0, #087C00)"/>
</g>
</svg>
