<svg preserveAspectRatio="none" width="100%" height="100%" overflow="visible" style="display: block;" viewBox="0 0 7.88462 7.88462" fill="none" xmlns="http://www.w3.org/2000/svg">
<g id="bi:fire" clip-path="url(#clip0_0_24)">
<path id="Vector" d="M3.94226 7.88457C5.57536 7.88457 6.89899 6.89899 6.89899 5.17423C6.89899 4.43505 6.6526 3.20307 5.66702 2.2175C5.79022 2.95668 5.05103 3.20307 5.05103 3.20307C5.42063 1.9711 4.43505 0.246344 2.95668 -5.00801e-05C3.13261 0.985527 3.20308 1.9711 1.97111 2.95668C1.35512 3.44947 0.98553 4.3015 0.98553 5.17423C0.98553 6.89899 2.30916 7.88457 3.94226 7.88457ZM3.94226 7.39178C3.12571 7.39178 2.4639 6.89899 2.4639 6.03661C2.4639 5.66702 2.58709 5.05103 3.07988 4.55824C3.01828 4.92783 3.44947 5.17423 3.44947 5.17423C3.26468 4.55824 3.69587 3.57267 4.43505 3.44947C4.34684 3.94226 4.31185 4.43505 4.92784 4.92783C5.23583 5.17423 5.42063 5.6 5.42063 6.03661C5.42063 6.89899 4.75881 7.39178 3.94226 7.39178Z" fill="var(--fill-0, white)"/>
</g>
<defs>
<clipPath id="clip0_0_24">
<rect width="7.88462" height="7.88462" fill="white"/>
</clipPath>
</defs>
</svg>
