<svg preserveAspectRatio="none" width="100%" height="100%" overflow="visible" style="display: block;" viewBox="0 0 85 85" fill="none" xmlns="http://www.w3.org/2000/svg">
<g id="Group 6851" filter="url(#filter0_d_0_15)">
<circle id="Ellipse 194" cx="42.5" cy="38.5" r="22" fill="var(--fill-0, #FAF5FF)" stroke="var(--stroke-0, #D9D9D9)"/>
<g id="solar:medal-ribbon-star-outline">
<path id="Vector" fill-rule="evenodd" clip-rule="evenodd" d="M42.407 29.1572C40.7494 29.1572 39.1597 29.8157 37.9876 30.9878C36.8155 32.1599 36.157 33.7496 36.157 35.4072C36.157 37.0648 36.8155 38.6545 37.9876 39.8266C39.1597 40.9987 40.7494 41.6572 42.407 41.6572C44.0646 41.6572 45.6543 40.9987 46.8264 39.8266C47.9985 38.6545 48.657 37.0648 48.657 35.4072C48.657 33.7496 47.9985 32.1599 46.8264 30.9878C45.6543 29.8157 44.0646 29.1572 42.407 29.1572ZM34.657 35.4072C34.657 34.1227 34.9763 32.8583 35.5861 31.7278C36.1959 30.5973 37.0772 29.6361 38.1507 28.9306C39.2241 28.2251 40.4561 27.7976 41.7358 27.6863C43.0155 27.5751 44.3028 27.7836 45.4819 28.2933C46.661 28.8029 47.6949 29.5977 48.4907 30.606C49.2864 31.6143 49.8191 32.8047 50.0407 34.0699C50.2624 35.3352 50.1661 36.6357 49.7604 37.8545C49.3548 39.0733 48.6526 40.1721 47.717 41.0522C47.742 41.1027 47.7628 41.1552 47.779 41.2092L48.429 43.5782C48.732 44.6852 48.977 45.5762 49.088 46.2682C49.197 46.9462 49.219 47.6442 48.84 48.2122C48.624 48.5352 48.33 48.8002 47.984 48.9762C47.354 49.2962 46.667 49.1392 46.052 48.9062C45.424 48.6702 44.636 48.2592 43.668 47.7542L43.621 47.7302C42.897 47.3532 42.708 47.2682 42.526 47.2492C42.4469 47.2398 42.367 47.2398 42.288 47.2492C42.106 47.2682 41.918 47.3532 41.193 47.7302L41.146 47.7542C40.178 48.2592 39.39 48.6692 38.762 48.9062C38.147 49.1392 37.46 49.2962 36.83 48.9762C36.4847 48.798 36.1902 48.5351 35.974 48.2122C35.595 47.6442 35.617 46.9462 35.726 46.2682C35.837 45.5762 36.082 44.6852 36.386 43.5782L37.035 41.2082C37.0512 41.1546 37.072 41.1024 37.097 41.0522C36.3257 40.3283 35.7111 39.4538 35.2914 38.4828C34.8717 37.5118 34.6558 36.465 34.657 35.4072ZM38.367 42.0222L37.845 43.9282C37.525 45.0922 37.304 45.9042 37.207 46.5062C37.107 47.1312 37.182 47.3192 37.222 47.3782C37.2952 47.4881 37.3945 47.5781 37.511 47.6402C37.534 47.6512 37.677 47.7132 38.233 47.5032C38.766 47.3022 39.473 46.9342 40.5 46.4002L40.603 46.3462C41.171 46.0492 41.628 45.8112 42.129 45.7572C42.3143 45.7372 42.4996 45.7372 42.685 45.7572C43.185 45.8102 43.643 46.0492 44.211 46.3462L44.314 46.4002C45.34 46.9342 46.048 47.3022 46.581 47.5032C47.137 47.7132 47.281 47.6512 47.303 47.6402C47.4198 47.5782 47.5195 47.4882 47.593 47.3782C47.633 47.3182 47.707 47.1312 47.607 46.5062C47.51 45.9042 47.288 45.0922 46.97 43.9282L46.447 42.0222C45.2314 42.7673 43.8328 43.1602 42.407 43.1572C40.9812 43.1602 39.5826 42.7673 38.367 42.0222ZM42.407 33.4422C42.3496 33.5416 42.2833 33.6592 42.208 33.7952L42.11 33.9712L42.087 34.0112C42.009 34.1552 41.879 34.3932 41.662 34.5582C41.441 34.7262 41.174 34.7842 41.019 34.8182L40.975 34.8272L40.785 34.8702C40.609 34.9102 40.466 34.9422 40.345 34.9732C40.424 35.0702 40.527 35.1922 40.661 35.3492L40.791 35.5012L40.821 35.5352C40.929 35.6602 41.103 35.8602 41.184 36.1202C41.264 36.3762 41.236 36.6402 41.219 36.8062L41.214 36.8532L41.194 37.0562L41.152 37.5162C41.257 37.4702 41.375 37.4162 41.516 37.3512L41.695 37.2692L41.735 37.2492C41.879 37.1822 42.128 37.0652 42.407 37.0652C42.686 37.0652 42.935 37.1822 43.079 37.2502L43.119 37.2692L43.298 37.3512C43.4373 37.4166 43.5586 37.4716 43.662 37.5162L43.62 37.0562L43.6 36.8532L43.595 36.8062C43.578 36.6392 43.55 36.3762 43.63 36.1202C43.71 35.8602 43.885 35.6602 43.993 35.5352L44.023 35.5012L44.153 35.3492C44.287 35.1922 44.39 35.0702 44.469 34.9732C44.348 34.9432 44.205 34.9102 44.029 34.8702L43.839 34.8272L43.795 34.8172C43.64 34.7842 43.373 34.7262 43.152 34.5572C42.935 34.3932 42.805 34.1552 42.727 34.0122L42.704 33.9712L42.606 33.7952C42.5313 33.6592 42.465 33.5422 42.407 33.4422ZM41.421 32.2072C41.593 31.9822 41.905 31.6572 42.407 31.6572C42.909 31.6572 43.221 31.9822 43.393 32.2072C43.558 32.4212 43.723 32.7182 43.893 33.0232L43.916 33.0642L44.014 33.2412L44.071 33.3412L44.17 33.3642L44.36 33.4072L44.408 33.4172C44.735 33.4922 45.061 33.5652 45.311 33.6642C45.587 33.7732 45.961 33.9842 46.106 34.4492C46.248 34.9042 46.069 35.2902 45.913 35.5392C45.768 35.7692 45.548 36.0252 45.323 36.2882L45.293 36.3232L45.163 36.4762L45.081 36.5732C45.083 36.6092 45.088 36.6512 45.093 36.7082L45.113 36.9112L45.117 36.9572C45.151 37.3092 45.184 37.6492 45.172 37.9212C45.16 38.2072 45.092 38.6392 44.704 38.9322C44.304 39.2362 43.864 39.1702 43.584 39.0892C43.326 39.0162 43.021 38.8752 42.714 38.7342L42.671 38.7142L42.491 38.6312L42.407 38.5922L42.322 38.6322L42.143 38.7142L42.099 38.7342C41.793 38.8752 41.488 39.0162 41.23 39.0892C40.95 39.1692 40.51 39.2362 40.11 38.9322C39.723 38.6392 39.654 38.2072 39.642 37.9222C39.63 37.6492 39.662 37.3092 39.697 36.9572L39.701 36.9112L39.721 36.7082L39.734 36.5732L39.651 36.4762L39.521 36.3232L39.491 36.2882C39.266 36.0252 39.046 35.7682 38.901 35.5382C38.745 35.2902 38.566 34.9042 38.708 34.4482C38.852 33.9852 39.227 33.7732 39.503 33.6642C39.753 33.5652 40.079 33.4922 40.406 33.4182L40.453 33.4082L40.644 33.3642L40.744 33.3412L40.8 33.2412L40.898 33.0642L40.921 33.0232C41.091 32.7182 41.256 32.4212 41.421 32.2072Z" fill="var(--fill-0, #9333EA)"/>
</g>
</g>
<defs>
<filter id="filter0_d_0_15" x="0" y="0" width="85" height="85" filterUnits="userSpaceOnUse" color-interpolation-filters="sRGB">
<feFlood flood-opacity="0" result="BackgroundImageFix"/>
<feColorMatrix in="SourceAlpha" type="matrix" values="0 0 0 0 0 0 0 0 0 0 0 0 0 0 0 0 0 0 127 0" result="hardAlpha"/>
<feOffset dy="4"/>
<feGaussianBlur stdDeviation="10"/>
<feComposite in2="hardAlpha" operator="out"/>
<feColorMatrix type="matrix" values="0 0 0 0 0 0 0 0 0 0 0 0 0 0 0 0 0 0 0.1 0"/>
<feBlend mode="normal" in2="BackgroundImageFix" result="effect1_dropShadow_0_15"/>
<feBlend mode="normal" in="SourceGraphic" in2="effect1_dropShadow_0_15" result="shape"/>
</filter>
</defs>
</svg>
