<svg preserveAspectRatio="none" width="100%" height="100%" overflow="visible" style="display: block;" viewBox="0 0 21 21" fill="none" xmlns="http://www.w3.org/2000/svg">
<g id="fluent:checkmark-circle-hint-16-filled">
<path id="Vector" d="M11.4739 17.6531C11.9687 17.5875 12.4701 17.829 12.6604 18.2897C12.8888 18.8383 12.5882 19.4696 12.0028 19.5654C11.0077 19.7304 9.99227 19.7304 8.99719 19.5654C8.41181 19.4696 8.11125 18.8383 8.33962 18.2897C8.52994 17.829 9.03131 17.5862 9.52612 17.6531C10.1725 17.7395 10.8275 17.7395 11.4739 17.6531ZM3.465 14.4795C3.92438 14.2892 4.452 14.4729 4.75387 14.8693C5.14844 15.3888 5.61159 15.8524 6.13069 16.2474C6.52706 16.5493 6.71081 17.0743 6.5205 17.535C6.29212 18.0849 5.63588 18.3172 5.15288 17.9707C4.33342 17.3845 3.61596 16.6675 3.02925 15.8484C2.68275 15.3654 2.91506 14.7066 3.465 14.4795ZM16.2461 14.8706C16.548 14.4742 17.073 14.2905 17.5337 14.4808C18.0836 14.7092 18.3173 15.3667 17.9694 15.8497C17.383 16.6683 16.666 17.3848 15.8471 17.9707C15.3641 18.3172 14.7079 18.0849 14.4795 17.535C14.2892 17.0756 14.4729 16.5506 14.8693 16.2474C15.3883 15.8528 15.8515 15.3896 16.2461 14.8706ZM13.0856 7.83562C13.1757 7.73891 13.2844 7.66134 13.4052 7.60754C13.5259 7.55374 13.6563 7.52481 13.7884 7.52247C13.9206 7.52014 14.0519 7.54446 14.1745 7.59396C14.297 7.64347 14.4084 7.71716 14.5019 7.81064C14.5953 7.90411 14.669 8.01546 14.7185 8.13803C14.768 8.2606 14.7924 8.39189 14.79 8.52406C14.7877 8.65623 14.7588 8.78658 14.705 8.90733C14.6512 9.02808 14.5736 9.13676 14.4769 9.22688L10.2112 13.4925C10.0267 13.6768 9.77648 13.7804 9.51562 13.7804C9.25476 13.7804 9.00457 13.6768 8.82 13.4925L6.52312 11.1956C6.34412 11.0173 6.24056 10.7769 6.23389 10.5243C6.22722 10.2717 6.31795 10.0262 6.48729 9.83864C6.65663 9.65108 6.89162 9.53583 7.14359 9.51675C7.39556 9.49766 7.64522 9.57621 7.84087 9.73613L7.91437 9.80437L9.51562 11.4056L13.0856 7.83562ZM1.43456 8.99981C1.53038 8.41444 2.16037 8.11256 2.709 8.33963C3.171 8.53125 3.4125 9.03262 3.34687 9.52744C3.26047 10.1738 3.26047 10.8288 3.34687 11.4752C3.4125 11.97 3.171 12.4714 2.71031 12.6617C2.16169 12.8901 1.53038 12.5895 1.43456 12.0041C1.26972 11.0095 1.26972 9.99447 1.43456 8.99981ZM18.291 8.33963C18.8396 8.11256 19.4696 8.41181 19.5654 8.99719C19.7306 9.9927 19.7306 11.0086 19.5654 12.0041C19.467 12.5908 18.8383 12.8914 18.2897 12.663C17.8277 12.4727 17.5862 11.97 17.6531 11.4752C17.7396 10.8284 17.7396 10.1729 17.6531 9.52612C17.5875 9.03131 17.829 8.52994 18.291 8.33963ZM5.15156 3.02925C5.63456 2.68275 6.29081 2.91506 6.51919 3.465C6.7095 3.92438 6.52575 4.44938 6.12938 4.75256C5.60963 5.14763 5.145 5.61225 4.75125 6.13069C4.44806 6.52838 3.92306 6.71212 3.46238 6.52181C2.91244 6.29344 2.68012 5.63719 3.02662 5.15419C3.6134 4.33358 4.33132 3.61522 5.15156 3.02794M14.4782 3.46369C14.7066 2.91375 15.3628 2.68144 15.8458 3.02794C16.6663 3.61432 17.3847 4.33179 17.9721 5.15156C18.3173 5.63456 18.0836 6.29344 17.5337 6.5205C17.0743 6.71081 16.5493 6.52706 16.2461 6.13069C15.8512 5.61113 15.3876 5.14753 14.868 4.75256C14.4716 4.44938 14.2879 3.92437 14.4782 3.46369ZM10.5 1.3125C11.0119 1.3125 11.5128 1.35319 12.0028 1.43456C12.5882 1.53038 12.8888 2.16169 12.6604 2.71031C12.4701 3.171 11.9687 3.41381 11.4739 3.34687C10.8275 3.26047 10.1725 3.26047 9.52612 3.34687C9.03131 3.4125 8.52994 3.171 8.33962 2.71031C8.11125 2.16169 8.41181 1.53038 8.99719 1.43456C9.49393 1.35277 9.99656 1.31194 10.5 1.3125Z" fill="var(--fill-0, #168AAD)"/>
</g>
</svg>
