<svg preserveAspectRatio="none" width="100%" height="100%" overflow="visible" style="display: block;" viewBox="0 0 16.6668 18.1792" fill="none" xmlns="http://www.w3.org/2000/svg">
<g id="Group">
<g id="Vector">
</g>
<path id="Vector_2" d="M8.33348 0.000223893C12.936 0.000223893 16.6668 3.73106 16.6668 8.33356C16.6668 12.9361 12.936 16.6669 8.33348 16.6669C3.73098 16.6669 0.00015024 12.9361 0.00015024 8.33356C0.00015024 3.73106 3.73098 0.000223893 8.33348 0.000223893ZM8.33348 1.66689C6.56537 1.66689 4.86968 2.36927 3.61944 3.61951C2.3692 4.86975 1.66682 6.56545 1.66682 8.33356C1.66682 10.1017 2.3692 11.7974 3.61944 13.0476C4.86968 14.2978 6.56537 15.0002 8.33348 15.0002C10.1016 15.0002 11.7973 14.2978 13.0475 13.0476C14.2978 11.7974 15.0001 10.1017 15.0001 8.33356C15.0001 6.56545 14.2978 4.86975 13.0475 3.61951C11.7973 2.36927 10.1016 1.66689 8.33348 1.66689ZM8.33348 11.6669C8.5545 11.6669 8.76646 11.7547 8.92274 11.911C9.07902 12.0672 9.16682 12.2792 9.16682 12.5002C9.16682 12.7212 9.07902 12.9332 8.92274 13.0895C8.76646 13.2458 8.5545 13.3336 8.33348 13.3336C8.11247 13.3336 7.90051 13.2458 7.74423 13.0895C7.58795 12.9332 7.50015 12.7212 7.50015 12.5002C7.50015 12.2792 7.58795 12.0672 7.74423 11.911C7.90051 11.7547 8.11247 11.6669 8.33348 11.6669ZM8.33348 3.75022C9.03538 3.75025 9.71537 3.99469 10.2566 4.44156C10.7979 4.88843 11.1667 5.50984 11.2996 6.19904C11.4325 6.88824 11.3212 7.60221 10.985 8.21832C10.6487 8.83442 10.1084 9.31419 9.45682 9.57522C9.36031 9.61071 9.27332 9.66804 9.20265 9.74272C9.16598 9.78439 9.16015 9.83772 9.16098 9.89272L9.16682 10.0002C9.16658 10.2126 9.08525 10.4169 8.93944 10.5714C8.79364 10.7258 8.59436 10.8188 8.38232 10.8312C8.17029 10.8436 7.9615 10.7747 7.79862 10.6383C7.63575 10.502 7.53107 10.3086 7.50598 10.0977L7.50015 10.0002V9.79189C7.50015 8.83106 8.27515 8.25439 8.83682 8.02856C9.06541 7.93727 9.26482 7.78545 9.41364 7.58938C9.56245 7.39331 9.65505 7.16041 9.68148 6.91569C9.70791 6.67096 9.66719 6.42366 9.56367 6.20034C9.46015 5.97702 9.29776 5.78611 9.09393 5.64812C8.8901 5.51013 8.65253 5.43027 8.40674 5.41711C8.16094 5.40396 7.91621 5.458 7.69881 5.57345C7.48142 5.68889 7.29957 5.86138 7.17281 6.07237C7.04605 6.28337 6.97916 6.52491 6.97932 6.77106C6.97932 6.99207 6.89152 7.20403 6.73524 7.36031C6.57896 7.51659 6.367 7.60439 6.14598 7.60439C5.92497 7.60439 5.71301 7.51659 5.55673 7.36031C5.40045 7.20403 5.31265 6.99207 5.31265 6.77106C5.31265 5.96988 5.63092 5.20152 6.19743 4.63501C6.76395 4.06849 7.53231 3.75022 8.33348 3.75022Z" fill="var(--fill-0, white)"/>
</g>
</svg>
