<svg preserveAspectRatio="none" width="100%" height="100%" overflow="visible" style="display: block;" viewBox="0 0 40 49" fill="none" xmlns="http://www.w3.org/2000/svg">
<g id="Group">
<path id="Vector" d="M38.3333 29V21.1997C38.3333 19.291 38.3333 18.339 37.9787 17.4803C37.624 16.624 36.9497 15.9473 35.5987 14.5987L24.548 3.548C23.3837 2.38367 22.8027 1.80267 22.0793 1.45733C21.9296 1.38542 21.7762 1.32155 21.6197 1.266C20.866 1 20.0423 1 18.3973 1C10.8257 1 7.03867 1 4.47433 3.06733C3.95654 3.48486 3.48486 3.95654 3.06733 4.47433C1 7.04333 1 10.8257 1 18.3973V29C1 37.799 1 42.1997 3.73467 44.932C6.46933 47.6643 10.8677 47.6667 19.6667 47.6667M22 2.16667V3.33333C22 9.932 22 13.2337 24.051 15.2823C26.0997 17.3333 29.4013 17.3333 36 17.3333H37.1667" stroke="var(--stroke-0, #007A99)" stroke-opacity="0.1" stroke-width="1.8" stroke-linecap="round" stroke-linejoin="round"/>
<path id="Vector_2" d="M31.3342 47.6667C32.7506 46.2901 38.3342 42.6267 38.3342 40.6667C38.3342 38.7067 32.7506 35.0434 31.3342 33.6667M36.0009 40.6667H19.6676" stroke="var(--stroke-0, #007A99)" stroke-opacity="0.1" stroke-width="1.8" stroke-linecap="round" stroke-linejoin="round"/>
</g>
</svg>
