<svg preserveAspectRatio="none" width="100%" height="100%" overflow="visible" style="display: block;" viewBox="0 0 36 36" fill="none" xmlns="http://www.w3.org/2000/svg">
<g id="Group">
<path id="Vector" d="M6 4.46C4.375 4.62 3.28167 4.98167 2.465 5.79833C1 7.26167 1 9.62 1 14.3333V21C1 25.7133 1 28.0717 2.465 29.535C3.28167 30.3517 4.375 30.7133 6 30.8733M29.3333 4.46C30.9583 4.62 32.0517 4.98167 32.8683 5.79833C34.3333 7.26167 34.3333 9.62 34.3333 14.3333V21C34.3333 25.7133 34.3333 28.0717 32.8683 29.535C32.0517 30.3517 30.9583 30.7133 29.3333 30.8733M6 11C6 6.28667 6 3.92833 7.465 2.465C8.92833 1 11.2867 1 16 1H19.3333C24.0467 1 26.405 1 27.8683 2.465C29.3333 3.92833 29.3333 6.28667 29.3333 11V24.3333C29.3333 29.0467 29.3333 31.405 27.8683 32.8683C26.405 34.3333 24.0467 34.3333 19.3333 34.3333H16C11.2867 34.3333 8.92833 34.3333 7.465 32.8683C6 31.405 6 29.0467 6 24.3333V11Z" stroke="var(--stroke-0, #2C9054)" stroke-width="2"/>
<path id="Vector_2" d="M12.666 19.3334H22.666M12.666 12.6667H22.666M12.666 26H17.666" stroke="var(--stroke-0, #2C9054)" stroke-width="2" stroke-linecap="round"/>
</g>
</svg>
