<svg preserveAspectRatio="none" width="100%" height="100%" overflow="visible" style="display: block;" viewBox="0 0 29 36" fill="none" xmlns="http://www.w3.org/2000/svg">
<g id="Group">
<path id="Vector" d="M27.6667 21V15.4283C27.6667 14.065 27.6667 13.385 27.4133 12.7717C27.16 12.16 26.6783 11.6767 25.7133 10.7133L17.82 2.82C16.9883 1.98833 16.5733 1.57333 16.0567 1.32667C15.9497 1.2753 15.8401 1.22968 15.7283 1.19C15.19 1 14.6017 1 13.4267 1C8.01833 1 5.31333 1 3.48167 2.47667C3.11181 2.7749 2.7749 3.11181 2.47667 3.48167C1 5.31667 1 8.01833 1 13.4267V21C1 27.285 1 30.4283 2.95333 32.38C4.90667 34.3317 8.04833 34.3333 14.3333 34.3333M16 1.83333V2.66667C16 7.38 16 9.73833 17.465 11.2017C18.9283 12.6667 21.2867 12.6667 26 12.6667H26.8333" stroke="var(--stroke-0, #007A99)" stroke-width="1.8" stroke-linecap="round" stroke-linejoin="round"/>
<path id="Vector_2" d="M22.6673 34.3334C23.679 33.35 27.6673 30.7334 27.6673 29.3334C27.6673 27.9334 23.679 25.3167 22.6673 24.3334M26.0007 29.3334H14.334" stroke="var(--stroke-0, #007A99)" stroke-width="1.8" stroke-linecap="round" stroke-linejoin="round"/>
</g>
</svg>
