<svg preserveAspectRatio="none" width="100%" height="100%" overflow="visible" style="display: block;" viewBox="0 0 50 50" fill="none" xmlns="http://www.w3.org/2000/svg">
<g id="Group">
<path id="Vector" d="M9 6.844C6.725 7.068 5.19433 7.57433 4.051 8.71767C2 10.7663 2 14.068 2 20.6667V30C2 36.5987 2 39.9003 4.051 41.949C5.19433 43.0923 6.725 43.5987 9 43.8227M41.6667 6.844C43.9417 7.068 45.4723 7.57433 46.6157 8.71767C48.6667 10.7663 48.6667 14.068 48.6667 20.6667V30C48.6667 36.5987 48.6667 39.9003 46.6157 41.949C45.4723 43.0923 43.9417 43.5987 41.6667 43.8227M9 16C9 9.40133 9 6.09967 11.051 4.051C13.0997 2 16.4013 2 23 2H27.6667C34.2653 2 37.567 2 39.6157 4.051C41.6667 6.09967 41.6667 9.40133 41.6667 16V34.6667C41.6667 41.2653 41.6667 44.567 39.6157 46.6157C37.567 48.6667 34.2653 48.6667 27.6667 48.6667H23C16.4013 48.6667 13.0997 48.6667 11.051 46.6157C9 44.567 9 41.2653 9 34.6667V16Z" stroke="var(--stroke-0, #2C9054)" stroke-opacity="0.1" stroke-width="2.5"/>
<path id="Vector_2" d="M18.334 27.6666H32.334M18.334 18.3333H32.334M18.334 37H25.334" stroke="var(--stroke-0, #2C9054)" stroke-opacity="0.1" stroke-width="2.5" stroke-linecap="round"/>
</g>
</svg>
