<svg preserveAspectRatio="none" width="100%" height="100%" overflow="visible" style="display: block;" viewBox="0 0 40 40" fill="none" xmlns="http://www.w3.org/2000/svg">
<g id="majesticons:analytics-plus-line">
<path id="Vector" d="M13.3327 26.6667V18.3334M19.9993 26.6667V13.3334M26.666 26.6667V23.3334M19.9993 6.66671H9.99935C9.11529 6.66671 8.26745 7.0179 7.64233 7.64302C7.0172 8.26814 6.66602 9.11599 6.66602 10V30C6.66602 30.8841 7.0172 31.7319 7.64233 32.3571C8.26745 32.9822 9.11529 33.3334 9.99935 33.3334H29.9993C30.8834 33.3334 31.7312 32.9822 32.3564 32.3571C32.9815 31.7319 33.3327 30.8841 33.3327 30V20M31.666 3.33337V8.33337M31.666 8.33337V13.3334M31.666 8.33337H36.666M31.666 8.33337H26.666" stroke="var(--stroke-0, #717300)" stroke-width="2" stroke-linecap="round" stroke-linejoin="round"/>
</g>
</svg>
