<svg preserveAspectRatio="none" width="100%" height="100%" overflow="visible" style="display: block;" viewBox="0 0 55 55" fill="none" xmlns="http://www.w3.org/2000/svg">
<g id="majesticons:analytics-plus-line">
<path id="Vector" d="M18.3327 36.6667V25.2084M27.4993 36.6667V18.3334M36.666 36.6667V32.0834M27.4993 9.16671H13.7493C12.5338 9.16671 11.368 9.64959 10.5084 10.5091C9.6489 11.3687 9.16602 12.5345 9.16602 13.75V41.25C9.16602 42.4656 9.6489 43.6314 10.5084 44.4909C11.368 45.3505 12.5338 45.8334 13.7493 45.8334H41.2494C42.4649 45.8334 43.6307 45.3505 44.4903 44.4909C45.3498 43.6314 45.8327 42.4656 45.8327 41.25V27.5M43.541 4.58337V11.4584M43.541 11.4584V18.3334M43.541 11.4584H50.416M43.541 11.4584H36.666" stroke="var(--stroke-0, #717300)" stroke-opacity="0.1" stroke-width="2.5" stroke-linecap="round" stroke-linejoin="round"/>
</g>
</svg>
