<svg preserveAspectRatio="none" width="100%" height="100%" overflow="visible" style="display: block;" viewBox="0 0 54 54" fill="none" xmlns="http://www.w3.org/2000/svg">
<g id="ph:certificate-light">
<path id="Vector" d="M26.5781 28.6875C26.5781 29.0232 26.4448 29.3451 26.2074 29.5824C25.9701 29.8198 25.6482 29.9531 25.3125 29.9531H15.1875C14.8518 29.9531 14.5299 29.8198 14.2926 29.5824C14.0552 29.3451 13.9219 29.0232 13.9219 28.6875C13.9219 28.3518 14.0552 28.0299 14.2926 27.7926C14.5299 27.5552 14.8518 27.4219 15.1875 27.4219H25.3125C25.6482 27.4219 25.9701 27.5552 26.2074 27.7926C26.4448 28.0299 26.5781 28.3518 26.5781 28.6875ZM25.3125 20.6719H15.1875C14.8518 20.6719 14.5299 20.8052 14.2926 21.0426C14.0552 21.2799 13.9219 21.6018 13.9219 21.9375C13.9219 22.2732 14.0552 22.5951 14.2926 22.8324C14.5299 23.0698 14.8518 23.2031 15.1875 23.2031H25.3125C25.6482 23.2031 25.9701 23.0698 26.2074 22.8324C26.4448 22.5951 26.5781 22.2732 26.5781 21.9375C26.5781 21.6018 26.4448 21.2799 26.2074 21.0426C25.9701 20.8052 25.6482 20.6719 25.3125 20.6719ZM48.5156 33.8808V47.25C48.5161 47.4724 48.458 47.691 48.3472 47.8838C48.2363 48.0766 48.0766 48.2368 47.8841 48.3483C47.6916 48.4597 47.4731 48.5184 47.2507 48.5185C47.0283 48.5187 46.8098 48.4602 46.6172 48.349L41.3438 45.3326L36.0703 48.349C35.8777 48.4602 35.6592 48.5187 35.4368 48.5185C35.2144 48.5184 34.9959 48.4597 34.8034 48.3483C34.6109 48.2368 34.4512 48.0766 34.3403 47.8838C34.2295 47.691 34.1714 47.4724 34.1719 47.25V41.7656H8.4375C7.65428 41.7656 6.90314 41.4545 6.34933 40.9007C5.79551 40.3469 5.48438 39.5957 5.48438 38.8125V11.8125C5.48438 11.0293 5.79551 10.2781 6.34933 9.72433C6.90314 9.17051 7.65428 8.85938 8.4375 8.85938H45.5625C46.3457 8.85938 47.0969 9.17051 47.6507 9.72433C48.2045 10.2781 48.5156 11.0293 48.5156 11.8125V18.4317C49.5799 19.4173 50.4291 20.6122 51.0098 21.9415C51.5906 23.2707 51.8903 24.7057 51.8903 26.1562C51.8903 27.6068 51.5906 29.0418 51.0098 30.371C50.4291 31.7003 49.5799 32.8952 48.5156 33.8808ZM41.3438 18.1406C39.7584 18.1406 38.2087 18.6107 36.8905 19.4915C35.5723 20.3723 34.545 21.6241 33.9383 23.0888C33.3316 24.5535 33.1729 26.1651 33.4821 27.72C33.7914 29.2749 34.5548 30.7031 35.6758 31.8242C36.7969 32.9452 38.2251 33.7086 39.78 34.0179C41.3349 34.3271 42.9465 34.1684 44.4112 33.5617C45.8759 32.955 47.1277 31.9277 48.0085 30.6095C48.8893 29.2913 49.3594 27.7416 49.3594 26.1562C49.3594 24.0304 48.5149 21.9916 47.0117 20.4883C45.5084 18.9851 43.4696 18.1406 41.3438 18.1406ZM34.1719 39.2344V33.8808C32.3251 32.1573 31.1583 29.8282 30.8835 27.3171C30.6088 24.8061 31.2445 22.2798 32.6749 20.1978C34.1053 18.1157 36.2355 16.6162 38.678 15.972C41.1205 15.3278 43.7132 15.5816 45.9844 16.6873V11.8125C45.9844 11.7006 45.9399 11.5933 45.8608 11.5142C45.7817 11.4351 45.6744 11.3906 45.5625 11.3906H8.4375C8.32561 11.3906 8.21831 11.4351 8.13919 11.5142C8.06007 11.5933 8.01562 11.7006 8.01562 11.8125V38.8125C8.01562 38.9244 8.06007 39.0317 8.13919 39.1108C8.21831 39.1899 8.32561 39.2344 8.4375 39.2344H34.1719ZM45.9844 35.6252C44.5402 36.3344 42.9527 36.7032 41.3438 36.7032C39.7348 36.7032 38.1473 36.3344 36.7031 35.6252V45.0689L40.7109 42.776C40.9033 42.6649 41.1216 42.6065 41.3438 42.6065C41.5659 42.6065 41.7842 42.6649 41.9766 42.776L45.9844 45.0689V35.6252Z" fill="var(--fill-0, #7335B2)" fill-opacity="0.1"/>
</g>
</svg>
