<svg preserveAspectRatio="none" width="100%" height="100%" overflow="visible" style="display: block;" viewBox="0 0 40 40" fill="none" xmlns="http://www.w3.org/2000/svg">
<g id="ph:arrows-clockwise">
<path id="Vector" d="M35 7.5V15C35 15.3315 34.8683 15.6495 34.6339 15.8839C34.3995 16.1183 34.0815 16.25 33.75 16.25H26.25C25.9185 16.25 25.6005 16.1183 25.3661 15.8839C25.1317 15.6495 25 15.3315 25 15C25 14.6685 25.1317 14.3505 25.3661 14.1161C25.6005 13.8817 25.9185 13.75 26.25 13.75H30.7328L28.4469 11.4641C26.1237 9.13032 22.9695 7.81368 19.6766 7.80313H19.6063C16.3409 7.79547 13.2038 9.07356 10.8734 11.3609C10.6347 11.5838 10.3183 11.7044 9.99179 11.6969C9.66531 11.6894 9.35472 11.5544 9.12647 11.3209C8.89822 11.0873 8.77044 10.7737 8.77045 10.4471C8.77047 10.1206 8.89829 9.80697 9.12656 9.57344C11.9508 6.81312 15.7497 5.27794 19.6988 5.30105C23.6479 5.32416 27.4285 6.90369 30.2203 9.69688L32.5 11.9828V7.5C32.5 7.16848 32.6317 6.85054 32.8661 6.61612C33.1005 6.3817 33.4185 6.25 33.75 6.25C34.0815 6.25 34.3995 6.3817 34.6339 6.61612C34.8683 6.85054 35 7.16848 35 7.5ZM29.1266 28.6391C26.7732 30.9379 23.6084 32.2162 20.3187 32.1969C17.0289 32.1776 13.8794 30.8622 11.5531 28.5359L9.26719 26.25H13.75C14.0815 26.25 14.3995 26.1183 14.6339 25.8839C14.8683 25.6495 15 25.3315 15 25C15 24.6685 14.8683 24.3505 14.6339 24.1161C14.3995 23.8817 14.0815 23.75 13.75 23.75H6.25C5.91848 23.75 5.60054 23.8817 5.36612 24.1161C5.1317 24.3505 5 24.6685 5 25V32.5C5 32.8315 5.1317 33.1495 5.36612 33.3839C5.60054 33.6183 5.91848 33.75 6.25 33.75C6.58152 33.75 6.89946 33.6183 7.13388 33.3839C7.3683 33.1495 7.5 32.8315 7.5 32.5V28.0172L9.78594 30.3031C12.5738 33.105 16.36 34.6853 20.3125 34.6969H20.3953C24.3142 34.707 28.0793 33.1728 30.875 30.4266C31.1033 30.193 31.2311 29.8794 31.2311 29.5529C31.2311 29.2263 31.1033 28.9127 30.8751 28.6791C30.6468 28.4456 30.3363 28.3106 30.0098 28.3031C29.6833 28.2956 29.3668 28.4162 29.1281 28.6391H29.1266Z" fill="var(--fill-0, #B26D2C)"/>
</g>
</svg>
