<svg preserveAspectRatio="none" width="100%" height="100%" overflow="visible" style="display: block;" viewBox="0 0 56 56" fill="none" xmlns="http://www.w3.org/2000/svg">
<g id="ph:arrows-clockwise">
<path id="Vector" d="M49 10.5V21C49 21.4641 48.8156 21.9092 48.4874 22.2374C48.1592 22.5656 47.7141 22.75 47.25 22.75H36.75C36.2859 22.75 35.8408 22.5656 35.5126 22.2374C35.1844 21.9092 35 21.4641 35 21C35 20.5359 35.1844 20.0908 35.5126 19.7626C35.8408 19.4344 36.2859 19.25 36.75 19.25H43.0259L39.8256 16.0497C36.5732 12.7824 32.1573 10.9391 27.5472 10.9244H27.4488C22.8773 10.9137 18.4853 12.703 15.2228 15.9053C14.8886 16.2173 14.4456 16.3861 13.9885 16.3756C13.5314 16.3651 13.0966 16.1762 12.7771 15.8492C12.4575 15.5222 12.2786 15.0832 12.2786 14.626C12.2787 14.1688 12.4576 13.7298 12.7772 13.4028C16.7312 9.53837 22.0496 7.38911 27.5783 7.42146C33.107 7.45382 38.4 9.66517 42.3084 13.5756L45.5 16.7759V10.5C45.5 10.0359 45.6844 9.59075 46.0126 9.26256C46.3408 8.93438 46.7859 8.75 47.25 8.75C47.7141 8.75 48.1592 8.93438 48.4874 9.26256C48.8156 9.59075 49 10.0359 49 10.5ZM40.7772 40.0947C37.4825 43.313 33.0518 45.1027 28.4461 45.0757C23.8405 45.0487 19.4311 43.2071 16.1744 39.9503L12.9741 36.75H19.25C19.7141 36.75 20.1592 36.5656 20.4874 36.2374C20.8156 35.9092 21 35.4641 21 35C21 34.5359 20.8156 34.0908 20.4874 33.7626C20.1592 33.4344 19.7141 33.25 19.25 33.25H8.75C8.28587 33.25 7.84075 33.4344 7.51256 33.7626C7.18437 34.0908 7 34.5359 7 35V45.5C7 45.9641 7.18437 46.4092 7.51256 46.7374C7.84075 47.0656 8.28587 47.25 8.75 47.25C9.21413 47.25 9.65925 47.0656 9.98744 46.7374C10.3156 46.4092 10.5 45.9641 10.5 45.5V39.2241L13.7003 42.4244C17.6033 46.347 22.904 48.5595 28.4375 48.5756H28.5534C34.0399 48.5898 39.311 46.4419 43.225 42.5972C43.5446 42.2702 43.7235 41.8312 43.7236 41.374C43.7236 40.9168 43.5447 40.4778 43.2251 40.1508C42.9056 39.8238 42.4708 39.6349 42.0137 39.6244C41.5566 39.6139 41.1136 39.7827 40.7794 40.0947H40.7772Z" fill="var(--fill-0, #B26D2C)" fill-opacity="0.1"/>
</g>
</svg>
