<svg width="20" height="20" viewBox="0 0 20 20" fill="none" xmlns="http://www.w3.org/2000/svg">
<path d="M13.3333 2.5H6.66667C6.22464 2.5 5.80072 2.67559 5.48816 2.98815C5.17559 3.30071 5 3.72464 5 4.16667V15.8333C5 16.2754 5.17559 16.6993 5.48816 17.0118C5.80072 17.3244 6.22464 17.5 6.66667 17.5H13.3333C13.7754 17.5 14.1993 17.3244 14.5118 17.0118C14.8244 16.6993 15 16.2754 15 15.8333V4.16667C15 3.72464 14.8244 3.30071 14.5118 2.98815C14.1993 2.67559 13.7754 2.5 13.3333 2.5Z" stroke="white" stroke-width="1.5" stroke-linecap="round" stroke-linejoin="round"/>
<path d="M10 5.83333V12.5" stroke="white" stroke-width="1.5" stroke-linecap="round" stroke-linejoin="round"/>
<path d="M7.5 9.16667L10 6.66667L12.5 9.16667" stroke="white" stroke-width="1.5" stroke-linecap="round" stroke-linejoin="round"/>
<path d="M3.33333 12.5H16.6667" stroke="white" stroke-width="1.5" stroke-linecap="round" stroke-linejoin="round"/>
</svg>



