<svg width="24" height="24" viewBox="0 0 24 24" fill="none" xmlns="http://www.w3.org/2000/svg">
<g clip-path="url(#clip0_2_22176)">
<path d="M23.8469 5.44C23.7959 5.11555 23.6474 4.81429 23.4211 4.57617C23.1949 4.33804 22.9017 4.1743 22.5803 4.10666L18.6669 3.24666C18.2473 3.15514 17.8129 3.1548 17.3931 3.24566C16.9733 3.33652 16.5779 3.51647 16.2336 3.77333L4.66694 12.2L1.42694 12.0667C1.16648 12.0573 0.909707 12.1303 0.693088 12.2752C0.47647 12.4202 0.311019 12.6296 0.220236 12.8739C0.129454 13.1182 0.117955 13.3849 0.187372 13.6361C0.25679 13.8874 0.403595 14.1103 0.606936 14.2733L3.94027 16.8933C4.34027 17.38 4.60694 17.2867 11.2269 13.68L11.8469 19.96C11.8573 20.1313 11.916 20.2962 12.0163 20.4354C12.1166 20.5747 12.2544 20.6826 12.4136 20.7467C12.528 20.7924 12.6504 20.8151 12.7736 20.8133C13.0215 20.8058 13.2584 20.7087 13.4403 20.54L15.0336 19.0867C15.1923 18.9397 15.2997 18.7458 15.3403 18.5333L16.8003 10.6C19.1803 9.26666 21.4336 8.01333 23.0403 7.1C23.3277 6.93831 23.559 6.69274 23.7031 6.3961C23.8473 6.09947 23.8974 5.76591 23.8469 5.44ZM22.3803 5.94C20.7136 6.88666 18.3803 8.21333 15.8736 9.58667L15.6003 9.74L14.0469 18.1867L13.0669 19.08L12.3336 11.5467L11.4469 12C6.66694 14.6667 5.0736 15.44 4.52694 15.68L1.66027 13.4067L5.04694 13.5533L17.0469 4.84666C17.2354 4.70527 17.4516 4.60543 17.6814 4.55371C17.9113 4.502 18.1494 4.4996 18.3803 4.54667L22.2803 5.38666C22.3404 5.39756 22.3954 5.42737 22.4374 5.47174C22.4794 5.51611 22.5061 5.57272 22.5136 5.63333C22.5273 5.69199 22.5218 5.75351 22.4977 5.80875C22.4737 5.864 22.4325 5.91003 22.3803 5.94Z" fill="white"/>
<path d="M4.66575 8.35999L7.03908 9.02665L8.13242 8.23332L5.46575 7.45999L6.66575 6.72665L10.3124 6.61999L11.8458 5.50665L6.66575 5.66665C6.50244 5.65782 6.34015 5.69723 6.19908 5.77999L4.44575 6.79999C4.3008 6.88586 4.1845 7.01272 4.11153 7.16458C4.03856 7.31643 4.01218 7.4865 4.03571 7.65333C4.05923 7.82016 4.13162 7.97629 4.24374 8.10204C4.35586 8.2278 4.5027 8.31755 4.66575 8.35999Z" fill="white"/>
</g>
<defs>
<clipPath id="clip0_2_22176">
<rect width="24" height="24" fill="white"/>
</clipPath>
</defs>
</svg>



