<svg width="36" height="36" viewBox="0 0 36 36" fill="none" xmlns="http://www.w3.org/2000/svg">
<path d="M12.375 11.25C12.0766 11.25 11.7905 11.3685 11.5795 11.5795C11.3685 11.7905 11.25 12.0766 11.25 12.375C11.25 12.6734 11.3685 12.9595 11.5795 13.1705C11.7905 13.3815 12.0766 13.5 12.375 13.5H23.625C23.9234 13.5 24.2095 13.3815 24.4205 13.1705C24.6315 12.9595 24.75 12.6734 24.75 12.375C24.75 12.0766 24.6315 11.7905 24.4205 11.5795C24.2095 11.3685 23.9234 11.25 23.625 11.25H12.375ZM12.375 16.875C12.0766 16.875 11.7905 16.9935 11.5795 17.2045C11.3685 17.4155 11.25 17.7016 11.25 18C11.25 18.2984 11.3685 18.5845 11.5795 18.7955C11.7905 19.0065 12.0766 19.125 12.375 19.125H19.125C19.4234 19.125 19.7095 19.0065 19.9205 18.7955C20.1315 18.5845 20.25 18.2984 20.25 18C20.25 17.7016 20.1315 17.4155 19.9205 17.2045C19.7095 16.9935 19.4234 16.875 19.125 16.875H12.375ZM12.375 22.5C12.0766 22.5 11.7905 22.6185 11.5795 22.8295C11.3685 23.0405 11.25 23.3266 11.25 23.625C11.25 23.9234 11.3685 24.2095 11.5795 24.4205C11.7905 24.6315 12.0766 24.75 12.375 24.75H23.625C23.9234 24.75 24.2095 24.6315 24.4205 24.4205C24.6315 24.2095 24.75 23.9234 24.75 23.625C24.75 23.3266 24.6315 23.0405 24.4205 22.8295C24.2095 22.6185 23.9234 22.5 23.625 22.5H12.375ZM10.125 4.5C8.63316 4.5 7.20242 5.09263 6.14752 6.14752C5.09263 7.20242 4.5 8.63316 4.5 10.125V25.875C4.5 27.3668 5.09263 28.7976 6.14752 29.8525C7.20242 30.9074 8.63316 31.5 10.125 31.5H25.875C27.3668 31.5 28.7976 30.9074 29.8525 29.8525C30.9074 28.7976 31.5 27.3668 31.5 25.875V10.125C31.5 8.63316 30.9074 7.20242 29.8525 6.14752C28.7976 5.09263 27.3668 4.5 25.875 4.5H10.125ZM6.75 10.125C6.75 9.22989 7.10558 8.37145 7.73851 7.73851C8.37145 7.10558 9.22989 6.75 10.125 6.75H25.875C26.7701 6.75 27.6286 7.10558 28.2615 7.73851C28.8944 8.37145 29.25 9.22989 29.25 10.125V25.875C29.25 26.7701 28.8944 27.6286 28.2615 28.2615C27.6286 28.8944 26.7701 29.25 25.875 29.25H10.125C9.22989 29.25 8.37145 28.8944 7.73851 28.2615C7.10558 27.6286 6.75 26.7701 6.75 25.875V10.125Z" fill="white"/>
</svg>




