<svg width="36" height="36" viewBox="0 0 36 36" fill="none" xmlns="http://www.w3.org/2000/svg">
<g clip-path="url(#clip0_2_21801)">
<path d="M9 33.75H27V36H6.75V31.5H2.25V0H17.3496L24.416 7.06641L31.5 14.1504V15.75H20.25V6.75H9V33.75ZM22.5 13.5H27.6504L22.5 8.34961V13.5ZM6.75 29.25V4.5H18.6504L16.4004 2.25H4.5V29.25H6.75ZM30.375 22.043L35.9473 27.6152L34.3652 29.1973L31.5 26.3496V36H29.25V26.3496L26.3848 29.1973L24.8027 27.6152L30.375 22.043ZM36 18V20.25H24.75V18H36Z" fill="white"/>
</g>
<defs>
<clipPath id="clip0_2_21801">
<rect width="36" height="36" fill="white"/>
</clipPath>
</defs>
</svg>







